<svg xmlns="http://www.w3.org/2000/svg" width="60" height="30" viewBox="0 0 60 30"><g fill="#dbe3e5"><path d="M14.7 0H.9v30h13.8zM59.1 0H45.3v30h13.8zM28.1 6.2L30 2l2 4.1c.3.4.4.4.8.3l1.7-1-1.1 5.8c-.2 1.1.4 1.4 1.1.7l2.4-2.7.5 1.5c.3.5.6.4 1 .2l2.5-.5-.8 3.4H40c0 .5-.3.8.3 1.1l.8.4-5 4.6c-.6.6-.4.8-.3 1.5l.6 1.4-4.8-.9c-.5-.1-.9-.1-1.1.4l.3 5.8h-1.5l.3-5.8c0-.5-.4-.5-1.4-.4l-4.4.9.5-1.4c.3-.7.3-1.1-.1-1.5l-5.3-4.5 1.1-.7c.3-.1.3-.4.1-.9l-1-3.4 2.5.5c.7.3 1 0 1.1-.4l.7-1.4 2.4 2.9c.6.6 1.1.2 1-.5l-1.3-6.4 1.9 1.3c.3.1.6.1.7-.2"/></g></svg>
