<?xml version="1.0" encoding="utf-8"?>
<!-- Generator: Adobe Illustrator 24.1.3, SVG Export Plug-In . SVG Version: 6.00 Build 0)  -->
<svg version="1.1" id="Layer_1" xmlns="http://www.w3.org/2000/svg" xmlns:xlink="http://www.w3.org/1999/xlink" x="0px" y="0px"
	 viewBox="0 0 294.19 254.06" style="enable-background:new 0 0 294.19 254.06;" xml:space="preserve">
<style type="text/css">
	.st0{fill:#FFFFFF;}
</style>
<path class="st0" d="M215.28,104.1c-0.85-15.83-6.69-30.32-15.96-41.96c-1.66-2.09-3.43-4.09-5.3-5.98
	c-12.51-12.63-29.54-20.77-48.46-21.78c-1.32-0.07-2.66-0.11-4-0.11c-1.34,0-2.68,0.04-4,0.11c-18.93,1.01-35.95,9.15-48.46,21.78
	c-1.88,1.89-3.64,3.9-5.3,5.98c-9.27,11.64-15.11,26.13-15.96,41.96c-0.07,1.32-0.11,2.66-0.11,4c0,1.34,0.04,2.68,0.11,4
	c0.85,15.83,6.69,30.32,15.96,41.96c1.66,2.09,3.43,4.09,5.3,5.98c12.51,12.63,29.54,20.77,48.46,21.78c1.32,0.07,2.66,0.11,4,0.11
	c1.34,0,2.68-0.04,4-0.11c18.93-1.01,35.96-9.15,48.46-21.78c1.88-1.89,3.64-3.9,5.3-5.98c9.27-11.64,15.11-26.13,15.96-41.96
	c0.07-1.32,0.11-2.66,0.11-4C215.39,106.76,215.35,105.43,215.28,104.1z M114.18,48.26c-4.19,4.79-7.86,10.65-10.85,17.32
	c-1.86-0.86-3.66-1.78-5.36-2.77c-0.79-0.46-1.66-1-2.56-1.6C100.83,55.87,107.18,51.47,114.18,48.26z M90.02,67.22
	c3.09,2.14,6.57,4.09,10.37,5.8c-3.2,9.33-5.16,19.88-5.54,31.08H75.86C76.69,90.21,81.86,77.48,90.02,67.22z M75.86,112.1h18.99
	c0.38,11.21,2.34,21.75,5.54,31.08c-3.8,1.72-7.28,3.66-10.37,5.8C81.86,138.73,76.69,125.99,75.86,112.1z M95.41,154.99
	c0.9-0.6,1.77-1.13,2.56-1.6c1.7-0.99,3.5-1.91,5.36-2.77c2.99,6.68,6.65,12.53,10.85,17.32
	C107.18,164.74,100.83,160.33,95.41,154.99z M137.56,173.56c-8.21-1.5-16.02-7.59-22.32-17.53c-1.65-2.6-3.13-5.39-4.47-8.33
	c8.09-2.7,17.21-4.29,26.79-4.64V173.56z M137.56,135.06c-10.79,0.37-20.89,2.22-29.73,5.21c-2.91-8.59-4.61-18.16-4.97-28.17h34.7
	V135.06z M137.56,104.1h-34.7c0.36-10.01,2.06-19.58,4.97-28.17c8.84,2.99,18.94,4.84,29.73,5.21V104.1z M137.56,73.15
	c-9.58-0.35-18.7-1.94-26.79-4.64c1.34-2.94,2.82-5.73,4.47-8.33c6.3-9.94,14.11-16.03,22.32-17.53V73.15z M187.71,61.21
	c-0.9,0.6-1.77,1.13-2.56,1.6c-1.7,0.99-3.5,1.91-5.36,2.77c-2.99-6.68-6.65-12.53-10.85-17.32
	C175.94,51.47,182.29,55.87,187.71,61.21z M145.56,42.65c8.21,1.5,16.02,7.59,22.32,17.53c1.65,2.6,3.13,5.39,4.47,8.33
	c-8.09,2.7-17.21,4.29-26.79,4.64V42.65z M145.56,81.15c10.79-0.37,20.89-2.22,29.73-5.21c2.91,8.59,4.61,18.16,4.97,28.17h-34.7
	V81.15z M145.56,112.1h34.7c-0.36,10.01-2.06,19.58-4.97,28.17c-8.84-2.99-18.94-4.84-29.73-5.21V112.1z M145.56,173.56v-30.5
	c9.58,0.35,18.7,1.94,26.79,4.64c-1.34,2.94-2.82,5.73-4.47,8.33C161.58,165.98,153.77,172.06,145.56,173.56z M168.94,167.95
	c4.19-4.79,7.86-10.65,10.85-17.32c1.86,0.86,3.66,1.78,5.36,2.77c0.79,0.46,1.66,1,2.56,1.6
	C182.29,160.34,175.94,164.74,168.94,167.95z M193.1,148.99c-3.09-2.14-6.57-4.09-10.37-5.8c3.2-9.33,5.16-19.88,5.54-31.08h18.99
	C206.42,126,201.26,138.73,193.1,148.99z M188.27,104.1c-0.38-11.21-2.34-21.75-5.54-31.08c3.8-1.72,7.28-3.66,10.37-5.8
	c8.16,10.26,13.32,23,14.16,36.89H188.27z"/>
<path class="st0" d="M215.28,104.1c-0.85-15.83-6.69-30.32-15.96-41.96c-1.66-2.09-3.43-4.09-5.3-5.98
	c-12.51-12.63-29.54-20.77-48.46-21.78c-1.32-0.07-2.66-0.11-4-0.11c-1.34,0-2.68,0.04-4,0.11c-18.93,1.01-35.95,9.15-48.46,21.78
	c-1.88,1.89-3.64,3.9-5.3,5.98c-9.27,11.64-15.11,26.13-15.96,41.96c-0.07,1.32-0.11,2.66-0.11,4c0,1.34,0.04,2.68,0.11,4
	c0.85,15.83,6.69,30.32,15.96,41.96c1.66,2.09,3.43,4.09,5.3,5.98c12.51,12.63,29.54,20.77,48.46,21.78c1.32,0.07,2.66,0.11,4,0.11
	c1.34,0,2.68-0.04,4-0.11c18.93-1.01,35.96-9.15,48.46-21.78c1.88-1.89,3.64-3.9,5.3-5.98c9.27-11.64,15.11-26.13,15.96-41.96
	c0.07-1.32,0.11-2.66,0.11-4C215.39,106.76,215.35,105.43,215.28,104.1z M114.18,48.26c-4.19,4.79-7.86,10.65-10.85,17.32
	c-1.86-0.86-3.66-1.78-5.36-2.77c-0.79-0.46-1.66-1-2.56-1.6C100.83,55.87,107.18,51.47,114.18,48.26z M90.02,67.22
	c3.09,2.14,6.57,4.09,10.37,5.8c-3.2,9.33-5.16,19.88-5.54,31.08H75.86C76.69,90.21,81.86,77.48,90.02,67.22z M75.86,112.1h18.99
	c0.38,11.21,2.34,21.75,5.54,31.08c-3.8,1.72-7.28,3.66-10.37,5.8C81.86,138.73,76.69,125.99,75.86,112.1z M95.41,154.99
	c0.9-0.6,1.77-1.13,2.56-1.6c1.7-0.99,3.5-1.91,5.36-2.77c2.99,6.68,6.65,12.53,10.85,17.32
	C107.18,164.74,100.83,160.33,95.41,154.99z M137.56,173.56c-8.21-1.5-16.02-7.59-22.32-17.53c-1.65-2.6-3.13-5.39-4.47-8.33
	c8.09-2.7,17.21-4.29,26.79-4.64V173.56z M137.56,135.06c-10.79,0.37-20.89,2.22-29.73,5.21c-2.91-8.59-4.61-18.16-4.97-28.17h34.7
	V135.06z M137.56,104.1h-34.7c0.36-10.01,2.06-19.58,4.97-28.17c8.84,2.99,18.94,4.84,29.73,5.21V104.1z M137.56,73.15
	c-9.58-0.35-18.7-1.94-26.79-4.64c1.34-2.94,2.82-5.73,4.47-8.33c6.3-9.94,14.11-16.03,22.32-17.53V73.15z M187.71,61.21
	c-0.9,0.6-1.77,1.13-2.56,1.6c-1.7,0.99-3.5,1.91-5.36,2.77c-2.99-6.68-6.65-12.53-10.85-17.32
	C175.94,51.47,182.29,55.87,187.71,61.21z M145.56,42.65c8.21,1.5,16.02,7.59,22.32,17.53c1.65,2.6,3.13,5.39,4.47,8.33
	c-8.09,2.7-17.21,4.29-26.79,4.64V42.65z M145.56,81.15c10.79-0.37,20.89-2.22,29.73-5.21c2.91,8.59,4.61,18.16,4.97,28.17h-34.7
	V81.15z M145.56,112.1h34.7c-0.36,10.01-2.06,19.58-4.97,28.17c-8.84-2.99-18.94-4.84-29.73-5.21V112.1z M145.56,173.56v-30.5
	c9.58,0.35,18.7,1.94,26.79,4.64c-1.34,2.94-2.82,5.73-4.47,8.33C161.58,165.98,153.77,172.06,145.56,173.56z M168.94,167.95
	c4.19-4.79,7.86-10.65,10.85-17.32c1.86,0.86,3.66,1.78,5.36,2.77c0.79,0.46,1.66,1,2.56,1.6
	C182.29,160.34,175.94,164.74,168.94,167.95z M193.1,148.99c-3.09-2.14-6.57-4.09-10.37-5.8c3.2-9.33,5.16-19.88,5.54-31.08h18.99
	C206.42,126,201.26,138.73,193.1,148.99z M188.27,104.1c-0.38-11.21-2.34-21.75-5.54-31.08c3.8-1.72,7.28-3.66,10.37-5.8
	c8.16,10.26,13.32,23,14.16,36.89H188.27z"/>
<path class="st0" d="M222.37,96.06c0.4,2.7,0.67,5.44,0.79,8.21c6.77,1.43,11.85,7.43,11.85,14.62v59.78
	c0,8.26-6.69,14.95-14.95,14.95h-12.68H192.4c-0.62,0-1.23,0.16-1.77,0.48l-12.95,7.52l-24.24,14.07c-0.1,0.06-0.23-0.01-0.23-0.13
	v-13.94v-4.47c0-1.95-1.58-3.53-3.53-3.53h-4.47H63.06c-8.26,0-14.95-6.69-14.95-14.95V118.9c0-7.19,5.08-13.19,11.85-14.62
	c0.13-2.78,0.4-5.51,0.79-8.21C49.16,97.22,40.11,107,40.11,118.9v59.77c0,12.68,10.28,22.95,22.95,22.95h78.63
	c1.95,0,3.53,1.58,3.53,3.53v18.45c0,2.72,2.95,4.41,5.3,3.05l42.28-24.55c0.54-0.31,1.15-0.48,1.77-0.48h25.51
	c12.67,0,22.95-10.28,22.95-22.95V118.9C243.01,107,233.96,97.22,222.37,96.06z"/>
</svg>
