<?xml version="1.0" standalone="no"?>
<!DOCTYPE svg PUBLIC "-//W3C//DTD SVG 20010904//EN"
 "http://www.w3.org/TR/2001/REC-SVG-20010904/DTD/svg10.dtd">
<svg version="1.0" xmlns="http://www.w3.org/2000/svg"
 width="1721.000000pt" height="217.000000pt" viewBox="0 0 1721.000000 217.000000"
 preserveAspectRatio="xMidYMid meet">

<g transform="translate(0.000000,217.000000) scale(0.100000,-0.100000)"
fill="#000000" stroke="none">
<path d="M9578 1736 c-16 -24 -28 -46 -28 -50 0 -3 13 -6 28 -6 20 0 41 14 77
50 l49 50 -49 0 c-48 0 -51 -2 -77 -44z"/>
<path d="M410 1160 l0 -610 294 0 c259 0 295 2 300 16 3 9 6 283 6 610 l0 594
-300 0 -300 0 0 -610z"/>
<path d="M2210 1160 l0 -610 299 0 c263 0 300 2 305 16 3 9 6 283 6 610 l0
594 -305 0 -305 0 0 -610z"/>
<path d="M3896 1533 c-49 -131 -92 -244 -94 -250 -3 -9 9 -13 41 -13 l45 0 23
65 23 66 99 -3 99 -3 23 -60 22 -60 47 -3 c42 -3 47 -1 42 15 -3 10 -46 122
-94 248 l-89 230 -49 3 -49 2 -89 -237z m177 34 l34 -97 -74 0 c-40 0 -73 1
-73 3 0 2 14 41 30 88 17 46 33 90 36 98 7 20 10 14 47 -92z"/>
<path d="M6650 1685 l0 -85 -37 20 c-76 41 -169 16 -210 -56 -18 -30 -23 -55
-23 -112 0 -128 54 -192 163 -192 45 0 61 5 86 26 30 25 31 25 31 5 0 -17 6
-21 35 -21 l35 0 0 250 0 250 -40 0 -40 0 0 -85z m-61 -116 c90 -31 85 -216
-7 -243 -41 -12 -88 8 -107 45 -23 44 -19 131 6 163 19 24 49 43 70 45 3 1 20
-4 38 -10z"/>
<path d="M7400 1520 l0 -250 40 0 40 0 0 250 0 250 -40 0 -40 0 0 -250z"/>
<path d="M11120 1521 l0 -251 45 0 45 0 0 95 0 95 98 0 c113 0 155 16 186 70
25 43 26 122 3 167 -30 57 -64 67 -229 71 l-148 4 0 -251z m257 169 c57 -20
69 -86 24 -131 -28 -27 -34 -29 -110 -29 l-81 0 0 78 c0 43 3 82 7 85 10 11
127 8 160 -3z"/>
<path d="M11950 1520 l0 -250 25 0 c14 0 28 0 33 0 4 -1 8 9 10 20 3 20 4 20
33 -5 25 -20 41 -25 88 -25 68 0 113 25 143 80 27 50 22 186 -8 226 -52 71
-130 92 -202 55 l-42 -21 0 85 0 85 -40 0 -40 0 0 -250z m240 24 c34 -33 40
-134 11 -181 -41 -65 -134 -50 -165 27 -20 51 -20 69 1 121 27 69 99 85 153
33z"/>
<path d="M12350 1520 l0 -250 40 0 40 0 0 250 0 250 -40 0 -40 0 0 -250z"/>
<path d="M12500 1730 l0 -40 40 0 40 0 0 40 0 40 -40 0 -40 0 0 -40z"/>
<path d="M13240 1520 l0 -250 45 0 45 0 0 110 0 110 115 0 115 0 0 -110 0
-110 45 0 45 0 0 250 0 250 -45 0 -45 0 0 -100 0 -100 -115 0 -115 0 0 100 0
100 -45 0 -45 0 0 -250z"/>
<path d="M14460 1520 l0 -250 40 0 40 0 0 250 0 250 -40 0 -40 0 0 -250z"/>
<path d="M14820 1520 l0 -250 39 0 39 0 3 126 4 126 34 30 c26 23 39 28 60 23
57 -14 61 -26 61 -172 l0 -133 40 0 40 0 0 150 0 150 -29 32 c-27 30 -34 33
-89 33 -47 0 -67 -5 -91 -23 l-31 -23 0 91 0 90 -40 0 -40 0 0 -250z"/>
<path d="M9250 1685 c0 -54 0 -55 -30 -55 -27 0 -30 -3 -30 -30 0 -26 3 -30
29 -30 l29 0 4 -133 c2 -90 7 -139 16 -149 16 -20 74 -31 113 -23 24 5 29 12
29 36 0 26 -3 29 -34 29 -22 0 -36 6 -40 16 -3 9 -6 63 -6 120 l0 104 40 0
c38 0 40 2 40 30 0 28 -2 30 -40 30 l-40 0 0 55 0 55 -40 0 -40 0 0 -55z"/>
<path d="M14630 1685 c0 -54 0 -55 -30 -55 -27 0 -30 -3 -30 -30 0 -27 3 -30
30 -30 l30 0 0 -107 c0 -144 10 -178 56 -193 19 -7 51 -9 70 -6 30 6 34 11 34
36 0 27 -3 30 -30 30 -43 0 -51 25 -48 138 l3 97 38 3 c33 3 37 6 37 32 0 26
-4 29 -37 32 l-38 3 0 53 0 52 -42 0 -43 0 0 -55z"/>
<path d="M1572 1586 c-46 -96 -56 -101 -116 -65 -44 25 -43 27 -11 -111 41
-173 30 -189 -57 -90 -29 33 -56 60 -60 60 -4 0 -10 -11 -14 -25 -10 -42 -27
-48 -89 -35 -31 6 -59 9 -62 7 -2 -3 6 -38 18 -77 l23 -72 -23 -17 -23 -17 88
-80 c141 -126 135 -118 118 -166 -8 -23 -13 -43 -11 -45 2 -1 53 5 113 16 61
10 113 15 118 10 6 -5 9 -58 7 -118 -2 -103 -1 -109 19 -114 30 -8 34 10 27
122 -3 53 -3 102 2 109 5 9 31 7 112 -8 57 -11 107 -20 111 -20 4 0 2 15 -3
32 -16 56 -10 71 39 111 26 21 74 62 107 92 l60 55 -25 19 -25 20 19 71 c10
39 15 74 12 77 -3 3 -25 0 -50 -6 -65 -16 -72 -14 -82 21 -5 17 -14 33 -19 35
-6 1 -32 -24 -59 -57 -53 -63 -86 -78 -86 -37 0 13 11 75 25 137 14 62 23 115
21 118 -3 2 -20 -5 -39 -17 -19 -11 -41 -21 -49 -21 -9 0 -31 35 -55 86 l-40
86 -41 -86z"/>
<path d="M4363 1622 c-65 -35 -101 -117 -88 -201 15 -97 59 -143 143 -149 49
-3 62 0 95 22 42 29 46 22 26 -47 -14 -53 -61 -76 -120 -58 -26 8 -43 20 -46
32 -4 15 -14 19 -44 19 -33 0 -39 -3 -39 -21 0 -11 13 -33 28 -49 77 -76 246
-56 292 35 11 23 16 78 18 228 l4 197 -41 0 c-34 0 -41 -3 -41 -20 0 -18 -2
-18 -36 5 -44 30 -104 32 -151 7z m116 -53 c100 -35 76 -239 -29 -239 -37 0
-76 33 -90 75 -22 68 12 158 63 168 12 2 22 5 23 6 1 0 15 -4 33 -10z"/>
<path d="M4775 1626 c-93 -42 -133 -176 -82 -276 32 -63 65 -83 140 -88 74 -4
120 16 154 67 30 45 29 51 -11 51 -25 0 -43 -8 -64 -30 -47 -46 -118 -37 -147
19 -31 60 -29 61 121 61 l136 0 -6 48 c-17 121 -136 194 -241 148z m133 -82
c12 -14 22 -34 22 -45 0 -17 -8 -19 -90 -19 -50 0 -90 4 -90 10 0 25 26 60 54
74 39 20 74 13 104 -20z"/>
<path d="M5185 1623 c-16 -9 -35 -23 -42 -32 -11 -14 -12 -12 -13 12 0 24 -4
27 -35 27 l-35 0 0 -180 0 -180 40 0 40 0 0 124 c0 117 2 127 24 152 18 21 32
28 61 28 59 0 65 -17 65 -171 l0 -133 40 0 40 0 0 145 c0 86 -5 154 -11 169
-23 51 -115 71 -174 39z"/>
<path d="M5525 1626 c-121 -52 -140 -259 -32 -340 41 -30 150 -34 194 -7 36
23 59 53 68 94 7 26 6 27 -31 27 -33 0 -41 -4 -52 -29 -7 -16 -26 -35 -43 -42
-81 -33 -148 61 -120 169 18 64 77 95 131 67 16 -8 31 -24 35 -35 5 -16 15
-20 46 -20 44 0 49 12 23 61 -29 58 -146 87 -219 55z"/>
<path d="M5895 1626 c-69 -30 -111 -114 -102 -201 11 -106 61 -157 163 -163
83 -6 149 32 169 96 6 20 3 22 -34 22 -30 0 -41 -5 -46 -18 -6 -21 -45 -42
-76 -42 -49 0 -99 52 -99 101 0 5 61 9 135 9 l135 0 0 33 c0 40 -30 105 -61
134 -47 43 -124 55 -184 29z m133 -79 c12 -11 22 -31 22 -44 0 -22 -2 -23 -91
-23 -89 0 -90 0 -84 23 22 72 98 94 153 44z"/>
<path d="M6902 1633 c-13 -3 -41 -22 -61 -42 -64 -64 -75 -163 -30 -253 50
-99 236 -105 292 -10 24 43 22 52 -16 52 -23 0 -40 -8 -55 -25 -54 -62 -162
-31 -162 47 l0 28 131 0 132 0 -5 50 c-11 113 -104 176 -226 153z m86 -64 c26
-9 62 -57 62 -83 0 -3 -40 -6 -90 -6 -75 0 -90 3 -90 16 0 36 25 60 86 84 1 0
15 -5 32 -11z"/>
<path d="M7613 1621 c-38 -18 -73 -61 -73 -91 0 -5 17 -10 37 -10 28 0 42 6
59 27 17 22 29 26 69 26 35 0 51 -5 61 -18 30 -40 5 -62 -86 -76 -116 -17
-150 -42 -150 -108 0 -47 16 -79 49 -96 38 -19 111 -19 158 0 32 14 38 14 53
0 9 -8 35 -15 58 -15 40 0 42 2 42 29 0 20 -6 30 -20 34 -19 5 -20 14 -20 124
0 93 -3 123 -16 142 -36 51 -144 67 -221 32z m157 -219 c0 -48 -24 -72 -77
-79 -51 -7 -89 21 -80 60 7 25 35 40 97 50 59 10 60 9 60 -31z"/>
<path d="M8191 1626 c-70 -25 -93 -99 -48 -152 17 -20 45 -32 106 -48 100 -25
127 -50 92 -85 -33 -33 -96 -29 -131 9 -21 23 -37 30 -65 30 -33 0 -36 -2 -30
-22 21 -69 69 -98 162 -98 73 0 122 24 145 69 l17 34 7 -27 c11 -46 58 -76
119 -76 30 0 70 7 89 16 32 16 36 16 51 0 10 -9 33 -16 56 -16 37 0 39 2 39
30 0 20 -5 30 -15 30 -12 0 -15 19 -15 115 0 137 -10 165 -70 189 -106 42
-240 -7 -240 -89 0 -24 77 -20 85 4 16 53 145 44 145 -9 0 -28 -22 -39 -109
-54 -86 -15 -116 -32 -133 -76 l-11 -25 -9 32 c-10 39 -55 65 -140 83 -87 17
-111 51 -56 77 33 16 86 6 99 -18 7 -14 21 -19 49 -19 43 0 46 5 28 45 -25 56
-134 81 -217 51z m499 -215 c0 -38 -33 -78 -71 -86 -35 -8 -85 9 -94 32 -10
27 22 62 62 68 21 4 45 8 53 10 42 8 50 5 50 -24z"/>
<path d="M8985 1628 c-11 -6 -30 -20 -42 -31 l-23 -20 0 26 c0 24 -4 27 -35
27 l-35 0 0 -180 0 -180 40 0 40 0 0 124 c0 117 2 127 24 152 18 21 32 28 61
28 59 0 65 -17 65 -171 l0 -133 40 0 40 0 0 145 c0 86 -5 154 -11 169 -21 46
-115 72 -164 44z"/>
<path d="M9523 1621 c-61 -29 -93 -88 -93 -176 0 -50 5 -77 21 -105 60 -107
243 -107 301 0 l18 35 -36 3 c-31 3 -41 -1 -60 -25 -19 -24 -30 -28 -69 -28
-39 0 -51 5 -71 28 -13 15 -24 39 -24 53 l0 24 130 0 130 0 0 37 c0 48 -34
118 -71 144 -42 30 -123 35 -176 10z m118 -56 c18 -6 49 -52 49 -75 0 -6 -34
-10 -90 -10 -96 0 -104 5 -80 50 21 39 66 52 121 35z"/>
<path d="M12740 1629 c-67 -27 -103 -90 -104 -179 -1 -123 51 -182 164 -188
75 -4 117 16 150 70 31 51 27 68 -17 68 -33 0 -40 -5 -53 -33 -28 -59 -101
-62 -144 -4 -25 34 -27 118 -3 164 32 61 126 64 152 5 8 -17 18 -22 47 -22 32
0 38 3 38 21 0 76 -138 134 -230 98z"/>
<path d="M13795 1617 c-118 -67 -120 -278 -3 -338 78 -40 193 -15 231 49 24
42 22 52 -14 52 -21 0 -40 -9 -55 -25 -57 -61 -144 -35 -169 53 l-6 22 135 0
136 0 0 35 c0 131 -142 216 -255 152z m141 -71 c12 -11 25 -31 29 -43 6 -23 5
-23 -84 -23 -82 0 -91 2 -91 19 0 10 9 30 20 44 33 42 87 43 126 3z"/>
<path d="M14155 1621 c-37 -16 -54 -37 -69 -83 -5 -15 1 -18 38 -18 35 0 45 4
49 19 3 12 20 24 44 31 33 10 45 10 71 -4 34 -18 42 -46 18 -65 -8 -7 -45 -17
-83 -22 -37 -6 -82 -17 -99 -25 -70 -33 -72 -137 -4 -177 36 -22 119 -22 164
-1 32 16 36 16 51 0 10 -9 33 -16 56 -16 37 0 39 2 39 30 0 19 -5 30 -14 30
-22 0 -26 23 -26 141 0 61 -4 118 -10 128 -25 47 -153 65 -225 32z m155 -219
c0 -53 -28 -77 -87 -77 -33 0 -48 5 -59 19 -18 25 -18 29 4 55 15 19 62 33
130 40 8 1 12 -13 12 -37z"/>
<path d="M11560 1493 c0 -192 23 -233 132 -233 36 0 54 6 77 26 30 25 31 25
31 5 0 -18 6 -21 40 -21 l40 0 0 180 0 180 -40 0 -40 0 0 -114 c0 -62 -5 -127
-10 -143 -11 -32 -45 -53 -83 -53 -55 1 -67 34 -67 184 l0 126 -40 0 -40 0 0
-137z"/>
<path d="M12500 1450 l0 -180 40 0 40 0 0 180 0 180 -40 0 -40 0 0 -180z"/>
<path d="M7885 1049 c-57 -14 -112 -55 -143 -107 -21 -36 -27 -62 -30 -129 -7
-127 32 -209 120 -254 123 -63 271 -11 312 108 9 26 16 50 16 55 0 4 -20 8
-43 8 -42 0 -44 -1 -56 -39 -22 -76 -98 -107 -175 -72 -105 46 -125 234 -36
323 34 35 42 38 92 38 63 0 97 -20 118 -70 11 -27 17 -30 56 -30 24 0 44 5 44
10 0 19 -30 84 -48 103 -44 49 -149 75 -227 56z"/>
<path d="M14602 1046 c-133 -43 -198 -193 -153 -351 19 -63 88 -135 147 -153
136 -40 255 25 285 156 l7 32 -43 0 c-41 0 -43 -1 -59 -44 -29 -75 -94 -101
-170 -68 -63 28 -90 82 -91 177 0 115 54 185 144 185 57 0 90 -18 112 -62 18
-34 23 -38 59 -38 34 0 40 3 40 22 0 40 -47 105 -92 127 -58 27 -133 34 -186
17z"/>
<path d="M9628 1043 l-38 -4 0 -84 0 -84 -37 21 c-75 45 -177 20 -215 -53 -86
-166 43 -356 200 -294 23 10 42 21 42 26 0 5 5 9 10 9 6 0 10 -9 10 -20 0 -16
7 -20 35 -20 l35 0 0 255 c0 140 -1 254 -2 253 -2 -1 -20 -3 -40 -5z m-72
-216 c52 -45 42 -186 -15 -217 -52 -27 -114 -3 -136 54 -49 121 62 240 151
163z"/>
<path d="M4640 790 l0 -250 35 0 c29 0 35 4 35 21 0 20 0 20 32 -3 44 -31 134
-32 174 -2 56 41 69 69 72 157 2 70 -1 88 -20 121 -45 78 -153 106 -218 58
l-30 -23 0 86 0 85 -40 0 -40 0 0 -250z m221 50 c34 -19 52 -68 47 -133 -5
-74 -36 -107 -98 -107 -93 0 -131 149 -58 227 23 25 74 31 109 13z"/>
<path d="M5040 790 l0 -250 40 0 40 0 0 250 0 250 -40 0 -40 0 0 -250z"/>
<path d="M5190 1005 c0 -34 1 -35 39 -35 37 0 39 2 43 35 l4 35 -43 0 c-42 0
-43 0 -43 -35z"/>
<path d="M6980 960 c0 -84 -4 -91 -43 -66 -71 47 -174 16 -214 -64 -48 -94
-20 -230 57 -274 49 -29 129 -28 169 2 31 22 31 22 31 2 0 -18 5 -21 38 -18
l37 3 3 248 2 247 -40 0 -40 0 0 -80z m-56 -121 c50 -23 70 -107 41 -176 -19
-46 -41 -62 -83 -63 -65 0 -102 44 -102 120 0 102 64 155 144 119z"/>
<path d="M11162 797 c-50 -133 -92 -245 -92 -249 0 -5 20 -8 44 -8 l44 0 22
64 c11 35 28 67 36 70 31 12 184 7 189 -6 2 -7 14 -39 25 -70 l21 -58 45 0
c24 0 44 3 44 8 0 4 -41 116 -92 249 l-93 243 -50 0 -50 0 -93 -243z m182 45
l35 -102 -75 0 c-41 0 -74 1 -74 3 0 2 16 47 35 101 19 54 35 101 35 104 0 17
14 -17 44 -106z"/>
<path d="M14081 1014 c-13 -17 -21 -41 -21 -65 0 -37 -2 -39 -30 -39 -27 0
-30 -3 -30 -29 0 -25 4 -30 28 -33 l27 -3 3 -153 3 -153 37 3 37 3 3 153 3
152 35 0 c33 0 35 2 32 28 -2 23 -8 28 -36 30 -31 3 -33 6 -30 35 3 28 7 32
36 35 28 3 32 7 32 33 0 29 -1 29 -54 29 -47 0 -57 -4 -75 -26z"/>
<path d="M16320 955 l0 -84 -37 21 c-74 44 -175 20 -218 -52 -27 -47 -28 -168
-1 -222 38 -79 158 -110 225 -60 30 22 31 22 31 2 0 -17 6 -20 40 -20 l40 0 0
250 0 250 -40 0 -40 0 0 -85z m-48 -116 c25 -13 48 -68 48 -114 0 -46 -23
-101 -48 -114 -60 -32 -135 6 -148 75 -20 109 65 197 148 153z"/>
<path d="M3986 910 c-15 -5 -37 -17 -47 -26 -18 -16 -19 -16 -19 4 0 19 -6 22
-40 22 l-40 0 0 -250 0 -250 40 0 40 0 1 73 c1 39 1 78 0 85 -3 17 5 15 40
-10 40 -30 126 -31 165 -2 55 40 69 70 72 152 3 65 0 84 -20 122 -13 24 -37
52 -53 62 -38 21 -101 30 -139 18z m85 -70 c28 -16 49 -63 49 -115 0 -52 -21
-99 -49 -115 -85 -45 -174 54 -143 159 17 54 46 81 88 81 19 0 44 -5 55 -10z"/>
<path d="M5437 906 c-56 -21 -86 -53 -103 -114 -18 -62 -12 -126 17 -183 38
-75 157 -100 223 -48 l26 20 0 -85 0 -86 40 0 40 0 0 250 0 250 -35 0 c-28 0
-35 -4 -35 -20 0 -25 -4 -25 -38 -1 -37 27 -90 33 -135 17z m130 -80 c26 -23
28 -29 28 -99 0 -66 -3 -79 -24 -101 -18 -19 -35 -26 -61 -26 -77 0 -124 79
-99 167 22 80 98 109 156 59z"/>
<path d="M6240 909 c-76 -22 -123 -93 -124 -184 0 -137 99 -219 225 -185 48
13 109 69 109 101 0 32 -56 25 -90 -11 -52 -55 -139 -35 -159 38 l-10 32 136
0 135 0 -4 54 c-9 112 -113 185 -218 155z m104 -81 c13 -13 27 -33 31 -45 6
-23 5 -23 -84 -23 -82 0 -91 2 -91 19 0 10 12 30 26 45 34 33 83 35 118 4z"/>
<path d="M8305 909 c-45 -11 -63 -23 -88 -59 -26 -38 -22 -50 19 -50 26 0 43
7 60 25 17 19 33 25 64 25 50 0 86 -30 70 -60 -11 -21 -24 -26 -95 -36 -62 -8
-114 -29 -131 -52 -21 -27 -17 -95 7 -125 38 -49 123 -58 192 -22 25 13 29 13
47 -5 21 -21 39 -24 78 -14 30 9 32 64 2 64 -19 0 -20 7 -20 121 0 66 -5 129
-10 140 -23 42 -120 66 -195 48z m125 -228 c0 -31 -6 -44 -26 -60 -29 -23 -83
-28 -115 -11 -23 13 -25 53 -3 71 13 10 96 34 137 38 4 1 7 -17 7 -38z"/>
<path d="M8726 910 c-16 -5 -39 -19 -52 -31 l-24 -22 0 26 c0 24 -4 27 -35 27
l-35 0 0 -186 0 -185 38 3 37 3 5 133 c5 126 6 135 29 153 24 19 76 25 99 11
22 -14 32 -74 32 -190 l0 -113 38 3 37 3 3 126 c3 140 -8 191 -48 220 -31 22
-86 31 -124 19z"/>
<path d="M9055 909 c-46 -11 -91 -50 -98 -85 -4 -22 -1 -24 39 -24 32 0 44 4
44 15 0 34 104 49 134 19 39 -38 11 -63 -92 -80 -116 -21 -156 -62 -136 -140
13 -54 52 -79 122 -78 31 0 70 8 87 16 27 15 31 14 56 -4 39 -29 89 -17 89 22
0 19 -6 29 -19 33 -17 4 -19 16 -20 122 -1 65 -6 126 -12 136 -22 42 -120 66
-194 48z m125 -226 c0 -44 -6 -56 -37 -72 -61 -32 -138 4 -115 54 11 23 40 36
112 48 14 2 28 5 33 6 4 0 7 -16 7 -36z"/>
<path d="M9841 910 c-53 -13 -79 -30 -96 -65 -20 -44 -20 -45 21 -45 26 0 43
7 60 25 30 32 94 35 124 5 11 -11 20 -24 20 -30 0 -18 -45 -38 -100 -45 -112
-15 -150 -45 -150 -119 0 -90 129 -136 219 -79 22 14 26 14 35 1 15 -21 49
-30 80 -22 33 8 38 59 6 67 -19 5 -20 14 -20 122 0 64 -5 125 -10 136 -22 40
-120 66 -189 49z m119 -229 c0 -31 -6 -44 -26 -60 -29 -23 -83 -28 -115 -11
-23 13 -25 53 -3 71 13 10 96 34 137 38 4 1 7 -17 7 -38z"/>
<path d="M11656 910 c-35 -11 -72 -45 -94 -85 -24 -46 -21 -150 7 -203 40 -78
143 -103 213 -52 38 28 41 26 35 -22 -8 -56 -43 -88 -98 -88 -29 0 -47 7 -65
25 -31 31 -94 36 -94 8 2 -75 156 -119 257 -74 72 33 78 55 78 286 l0 200 -37
3 c-33 3 -38 0 -38 -17 0 -12 -4 -21 -10 -21 -5 0 -10 4 -10 9 0 11 -74 41
-98 40 -9 0 -30 -5 -46 -9z m122 -83 c71 -76 34 -217 -57 -217 -23 0 -45 7
-59 20 -22 21 -45 88 -38 111 2 8 7 26 10 41 15 66 100 92 144 45z"/>
<path d="M12057 906 c-50 -18 -72 -39 -97 -90 -57 -119 8 -265 126 -280 77
-10 138 14 175 71 27 41 24 53 -14 53 -24 0 -40 -8 -59 -30 -49 -56 -146 -31
-164 42 l-6 27 133 3 134 3 -2 46 c-3 116 -119 195 -226 155z m117 -82 c14
-15 26 -35 26 -45 0 -17 -9 -19 -91 -19 -89 0 -90 0 -84 23 19 65 101 88 149
41z"/>
<path d="M12476 910 c-16 -5 -39 -19 -52 -31 l-24 -22 0 26 c0 24 -4 27 -35
27 l-35 0 0 -186 0 -185 38 3 37 3 5 133 c5 126 6 135 29 153 24 20 76 25 99
10 21 -13 32 -77 32 -194 l0 -108 38 3 37 3 3 126 c3 140 -8 191 -48 220 -31
22 -86 31 -124 19z"/>
<path d="M12823 910 c-47 -11 -77 -34 -104 -77 -32 -52 -34 -161 -3 -213 74
-127 264 -111 311 25 l12 35 -45 0 c-33 0 -44 -4 -44 -15 0 -46 -82 -81 -129
-55 -21 11 -51 79 -51 115 0 36 30 104 51 115 20 11 69 13 94 4 8 -4 22 -19
31 -35 12 -24 21 -29 49 -29 31 0 35 3 35 26 0 35 -55 89 -105 103 -45 12 -56
12 -102 1z"/>
<path d="M13751 910 c-71 -17 -118 -74 -127 -157 -17 -137 82 -239 210 -218
84 15 125 53 147 139 14 57 1 131 -31 176 -35 49 -128 77 -199 60z m112 -81
c54 -42 58 -150 6 -201 -81 -81 -196 22 -160 142 22 73 99 103 154 59z"/>
<path d="M15040 911 c-51 -11 -78 -28 -95 -61 -22 -43 -19 -50 21 -50 26 0 43
7 60 25 18 19 33 25 67 25 48 0 67 -13 67 -47 0 -28 -20 -39 -90 -48 -121 -15
-150 -37 -150 -116 0 -40 5 -51 30 -73 17 -14 45 -28 64 -31 33 -7 111 9 133
27 8 6 18 3 32 -11 22 -22 40 -25 79 -15 30 9 32 64 2 64 -19 0 -20 7 -20 115
0 63 -5 125 -11 138 -21 47 -111 75 -189 58z m120 -226 c0 -49 -36 -85 -85
-85 -48 0 -75 16 -75 44 0 41 29 55 153 75 4 0 7 -15 7 -34z"/>
<path d="M15456 910 c-16 -5 -39 -19 -52 -31 l-24 -22 0 26 c0 24 -4 27 -35
27 l-35 0 0 -186 0 -185 38 3 37 3 5 133 c5 126 6 135 29 153 29 23 84 25 102
3 10 -12 16 -59 19 -153 l5 -136 38 -3 37 -3 0 154 c0 175 -8 197 -78 217 -42
11 -47 11 -86 0z"/>
<path d="M15800 914 c-66 -12 -97 -37 -114 -91 -7 -21 -4 -23 30 -23 27 0 43
7 60 26 20 21 31 25 70 22 35 -2 50 -9 61 -25 22 -33 -9 -58 -83 -68 -115 -14
-154 -44 -154 -119 0 -89 129 -135 219 -79 22 14 26 14 35 1 15 -21 49 -30 80
-22 33 8 38 59 6 67 -19 5 -20 14 -20 122 0 64 -5 125 -10 136 -20 37 -113 64
-180 53z m110 -233 c0 -31 -6 -44 -26 -60 -29 -23 -83 -28 -115 -11 -23 13
-25 53 -3 71 13 10 96 34 137 38 4 1 7 -17 7 -38z"/>
<path d="M16570 911 c-51 -11 -78 -28 -95 -61 -22 -42 -19 -50 20 -50 23 0 42
8 59 25 44 44 136 30 136 -21 0 -30 -19 -39 -117 -54 -104 -17 -132 -48 -123
-135 7 -73 126 -105 216 -59 20 11 30 12 32 4 6 -18 53 -31 84 -25 23 5 28 12
28 36 0 22 -5 29 -20 29 -19 0 -20 7 -20 115 0 63 -5 125 -11 138 -21 47 -111
75 -189 58z m120 -230 c0 -49 -35 -81 -87 -81 -63 0 -91 36 -64 79 7 11 83 32
144 40 4 1 7 -17 7 -38z"/>
<path d="M4252 758 c4 -174 9 -189 75 -214 52 -20 106 -12 139 21 l24 24 0
-24 c0 -22 4 -25 40 -25 l40 0 0 185 0 185 -39 0 -39 0 -4 -136 c-3 -129 -4
-137 -27 -155 -27 -22 -79 -25 -107 -5 -17 13 -19 29 -22 155 l-4 141 -40 0
-40 0 4 -152z"/>
<path d="M5194 897 c-2 -7 -3 -89 -2 -182 l3 -170 38 -3 37 -3 0 185 0 186
-35 0 c-20 0 -38 -6 -41 -13z"/>
<path d="M5750 771 c0 -77 5 -152 10 -166 15 -38 49 -63 97 -71 34 -5 51 -1
88 19 43 25 45 25 45 6 0 -17 6 -20 38 -17 l37 3 0 180 0 180 -37 3 -38 3 0
-108 c0 -168 -16 -203 -94 -203 -58 0 -66 22 -66 177 l0 133 -40 0 -40 0 0
-139z"/>
<path d="M7122 763 c5 -188 19 -215 119 -229 37 -5 50 -2 82 20 35 24 37 24
37 6 0 -17 7 -20 40 -20 l40 0 0 185 0 185 -40 0 -40 0 0 -129 c0 -115 -2
-131 -21 -155 -27 -34 -86 -37 -115 -5 -16 18 -20 40 -22 155 l-4 134 -40 0
-40 0 4 -147z"/>
<path d="M13040 906 c0 -2 29 -81 65 -174 36 -94 65 -182 65 -194 0 -40 -27
-68 -66 -68 -34 0 -35 -1 -32 -32 3 -30 6 -33 42 -36 56 -5 94 15 117 60 29
56 167 437 161 443 -3 3 -22 5 -41 5 l-37 0 -43 -130 c-23 -72 -46 -128 -50
-126 -4 3 -27 62 -50 131 l-43 125 -44 0 c-24 0 -44 -2 -44 -4z"/>
</g>
</svg>
