<?xml version="1.0" encoding="utf-8"?>
<!-- Generator: Adobe Illustrator 24.1.3, SVG Export Plug-In . SVG Version: 6.00 Build 0)  -->
<svg version="1.1" id="Layer_1" xmlns="http://www.w3.org/2000/svg" xmlns:xlink="http://www.w3.org/1999/xlink" x="0px" y="0px"
	 viewBox="0 0 539.05 47.1" style="enable-background:new 0 0 539.05 47.1;" xml:space="preserve">
<style type="text/css">
	.st0{fill:#FFFFFF;}
</style>
<g>
	<rect x="59.83" y="0.23" class="st0" width="19.47" height="40.06"/>
	<rect y="0.23" class="st0" width="19.47" height="40.06"/>
	<polygon class="st0" points="53.18,20.66 55.29,14.94 50.89,16.02 49.23,13.73 43.49,19.39 46.56,8.5 42.92,10.53 39.67,4.67 
		36.43,10.53 32.86,8.5 35.86,19.39 30.18,13.73 28.53,16.02 24.07,14.94 26.17,20.66 24,21.88 32.16,27.86 30.76,30.54 
		38.27,29.84 38.27,36.53 39.67,36.53 41.13,36.53 41.13,29.84 48.66,30.54 47.19,27.86 55.42,21.88 	"/>
	<path class="st0" d="M355.99,9.91h4.94c1.64,0,2.88-0.48,3.68-1.44c0.8-0.95,1.2-2.08,1.2-3.36c0-1.49-0.46-2.67-1.35-3.49
		c-0.9-0.83-2.08-1.24-3.53-1.24h-7.34v16.37h2.4V9.91z M355.99,2.46h4.22c0.82,0,1.47,0.11,1.93,0.33
		c0.84,0.41,1.25,1.17,1.25,2.33c0,1.02-0.29,1.73-0.87,2.13c-0.59,0.4-1.37,0.61-2.32,0.61h-4.22V2.46z"/>
	<path class="st0" d="M372.06,17.06c1.08,0,2.01-0.32,2.76-0.95c0.29-0.24,0.55-0.52,0.76-0.84l-0.02,1.47h2.08V4.75h-2.19v5.89
		c0,1.13-0.13,2.03-0.39,2.68c-0.47,1.2-1.34,1.78-2.65,1.78c-0.9,0-1.5-0.33-1.83-1c-0.18-0.37-0.27-0.85-0.27-1.43V4.75h-2.23
		v8.11c0,1.02,0.17,1.85,0.5,2.46C369.21,16.48,370.38,17.06,372.06,17.06z"/>
	<path class="st0" d="M386.07,4.44c-0.72,0-1.4,0.15-2.01,0.46c-0.53,0.26-1,0.63-1.41,1.09V0.32h-2.13v16.43h2.03v-1.3
		c0.36,0.45,0.7,0.79,1.02,1.01c0.63,0.44,1.42,0.67,2.34,0.67c1.63,0,2.93-0.64,3.85-1.89c0.92-1.25,1.38-2.83,1.38-4.71
		c0-1.98-0.47-3.51-1.4-4.53C388.8,4.96,387.56,4.44,386.07,4.44z M388.89,10.62c0,1.37-0.26,2.48-0.78,3.31
		c-0.52,0.83-1.28,1.23-2.32,1.23c-1.39,0-2.32-0.62-2.83-1.88c-0.27-0.67-0.41-1.57-0.41-2.66c0-1.5,0.33-2.58,0.99-3.23
		c0.66-0.64,1.43-0.97,2.31-0.97c1.01,0,1.75,0.38,2.27,1.17C388.62,8.39,388.89,9.41,388.89,10.62z"/>
	<rect x="393.27" y="0.37" class="st0" width="2.19" height="16.37"/>
	<rect x="398.22" y="4.81" class="st0" width="2.22" height="11.94"/>
	<rect x="398.22" y="0.37" class="st0" width="2.22" height="2.45"/>
	<path class="st0" d="M411.03,15.98c0.9-0.74,1.46-1.91,1.69-3.49l0.02-0.12h-2.13l-0.02,0.08c-0.18,0.85-0.51,1.52-0.97,2
		c-0.46,0.48-1.09,0.72-1.88,0.72c-1.04,0-1.78-0.38-2.27-1.16c-0.49-0.79-0.73-1.77-0.73-2.92c0-1.15,0.17-2.13,0.52-2.91
		c0.53-1.2,1.38-1.78,2.61-1.78c0.89,0,1.54,0.23,1.93,0.68c0.4,0.46,0.67,1.05,0.78,1.76l0.01,0.09h2.13l-0.01-0.12
		c-0.17-1.6-0.69-2.74-1.54-3.41c-0.85-0.66-1.96-0.99-3.3-0.99c-1.58,0-2.9,0.59-3.92,1.76c-1.02,1.17-1.53,2.81-1.53,4.9
		c0,1.7,0.47,3.15,1.4,4.29c0.93,1.15,2.2,1.73,3.77,1.73C408.98,17.09,410.13,16.71,411.03,15.98z"/>
	<polygon class="st0" points="435.36,16.75 435.36,0.37 432.94,0.37 432.94,7.05 424.84,7.05 424.84,0.37 422.42,0.37 422.42,16.75 
		424.84,16.75 424.84,9.19 432.94,9.19 432.94,16.75 	"/>
	<path class="st0" d="M448.46,12.84h-2.15l-0.02,0.08c-0.14,0.51-0.38,0.96-0.71,1.34c-0.59,0.66-1.39,0.99-2.38,0.99
		c-1.06,0-1.85-0.35-2.35-1.04c-0.49-0.68-0.77-1.6-0.82-2.72h8.57v-0.1c0-1.19-0.06-2.07-0.18-2.61c-0.13-0.8-0.4-1.52-0.8-2.12
		c-0.42-0.64-1.03-1.16-1.82-1.56c-0.79-0.4-1.62-0.6-2.46-0.6c-1.67,0-3.04,0.61-4.08,1.81c-1.03,1.19-1.56,2.77-1.56,4.68
		c0,1.94,0.52,3.47,1.55,4.56c1.03,1.08,2.3,1.63,3.78,1.63c0.6,0,1.15-0.06,1.63-0.18c0.9-0.21,1.66-0.62,2.27-1.21
		c0.36-0.34,0.7-0.79,0.99-1.33c0.29-0.54,0.47-1.04,0.52-1.48L448.46,12.84z M440.08,9.7c0.05-0.93,0.37-1.72,0.94-2.33
		c0.59-0.63,1.33-0.95,2.19-0.95c1.21,0,2.09,0.46,2.6,1.38c0.27,0.48,0.45,1.11,0.53,1.9H440.08z"/>
	<path class="st0" d="M461.71,16.77v-1.67l-0.12,0.02c-0.12,0.02-0.24,0.04-0.34,0.05c-0.11,0.01-0.2,0.02-0.29,0.02
		c-0.16,0-0.37-0.02-0.45-0.14c-0.07-0.11-0.11-0.25-0.11-0.44V7.83c0-1.15-0.45-2.01-1.34-2.55c-0.88-0.54-2.03-0.81-3.43-0.81
		c-1.21,0-2.29,0.29-3.2,0.87c-0.93,0.59-1.42,1.64-1.46,3.13l0,0.11h2.05l0.01-0.09c0.07-0.59,0.22-1.04,0.45-1.33
		c0.41-0.53,1.12-0.8,2.11-0.8c0.87,0,1.54,0.15,2,0.44c0.45,0.29,0.67,0.74,0.67,1.39c0,0.31-0.04,0.55-0.12,0.72
		c-0.14,0.29-0.41,0.46-0.83,0.51l-3.16,0.4c-1.12,0.14-2.04,0.52-2.74,1.14c-0.7,0.62-1.06,1.5-1.06,2.62
		c0,1.02,0.36,1.88,1.07,2.56c0.71,0.68,1.64,1.02,2.75,1.02c0.92,0,1.78-0.2,2.54-0.59c0.68-0.35,1.22-0.76,1.63-1.22
		c0.07,0.37,0.18,0.68,0.32,0.9c0.33,0.51,0.86,0.77,1.57,0.77c0.28,0,0.51-0.01,0.67-0.03c0.17-0.02,0.4-0.08,0.72-0.17
		L461.71,16.77z M458.21,10.83v1.41c0,1.18-0.52,2.01-1.59,2.53c-0.64,0.31-1.3,0.47-1.98,0.47c-0.55,0-1.02-0.16-1.42-0.47
		c-0.4-0.31-0.59-0.73-0.59-1.27c0-0.72,0.28-1.23,0.87-1.56c0.35-0.2,0.88-0.34,1.58-0.44l1.2-0.15c0.37-0.04,0.75-0.12,1.13-0.22
		C457.72,11.05,457.99,10.95,458.21,10.83z"/>
	<rect x="463.49" y="0.37" class="st0" width="2.19" height="16.37"/>
	<path class="st0" d="M468.84,14.27c0,0.77,0.17,1.41,0.51,1.9c0.35,0.5,1.01,0.75,1.97,0.75c0.29,0,0.56-0.02,0.81-0.05
		c0.25-0.03,0.5-0.08,0.73-0.15l0.08-0.02v-1.77l-0.12,0.02c-0.14,0.02-0.27,0.03-0.38,0.04c-0.5,0.02-0.85-0.01-1.03-0.1
		c-0.24-0.12-0.36-0.36-0.36-0.73V6.58h1.88V4.75h-1.88V1.46h-2.21v3.29h-1.6v1.83h1.6V14.27z"/>
	<path class="st0" d="M480.03,6.45c0.96,0,1.59,0.3,1.93,0.91c0.21,0.39,0.32,1.01,0.32,1.85v7.53h2.24V9.08
		c0-1.17-0.17-2.1-0.51-2.76c-0.63-1.23-1.83-1.85-3.57-1.85c-0.97,0-1.79,0.22-2.45,0.64c-0.33,0.21-0.7,0.57-1.1,1.05V0.32h-2.19
		v16.43h2.19v-6.35c0-1.53,0.32-2.58,0.96-3.12C478.5,6.72,479.23,6.45,480.03,6.45z"/>
	<path class="st0" d="M360.75,25.74h-2.62l-6.11,16.23l-0.05,0.14h2.47l1.75-4.84h6.19l1.69,4.84h2.62l-5.92-16.3L360.75,25.74z
		 M361.69,35.28h-4.78l2.44-6.72L361.69,35.28z"/>
	<path class="st0" d="M375.84,31.53c-0.33-0.39-0.66-0.7-0.98-0.92c-0.7-0.46-1.53-0.7-2.47-0.7c-1.38,0-2.58,0.57-3.56,1.7
		c-0.97,1.12-1.47,2.7-1.47,4.69c0,2.11,0.49,3.65,1.46,4.57c0.97,0.92,2.12,1.39,3.41,1.39c0.93,0,1.68-0.15,2.25-0.45
		c0.48-0.25,0.91-0.63,1.27-1.11c0,1.43-0.13,2.44-0.38,3.01c-0.45,1.04-1.39,1.54-2.87,1.54c-0.92,0-1.61-0.21-2.03-0.63
		c-0.27-0.27-0.45-0.66-0.54-1.17l-0.02-0.09h-2.21l0.01,0.11c0.11,1.24,0.61,2.16,1.5,2.75c0.88,0.58,1.97,0.87,3.25,0.87
		c2.3,0,3.9-0.83,4.73-2.46c0.45-0.88,0.67-2.08,0.67-3.59V30.23h-2.04V31.53z M374.96,32.89c0.58,0.68,0.87,1.75,0.87,3.18
		c0,0.95-0.16,1.79-0.47,2.5c-0.56,1.25-1.51,1.86-2.89,1.86c-0.88,0-1.56-0.33-2.08-1c-0.52-0.67-0.78-1.67-0.78-2.97
		c0-1.11,0.13-2.02,0.4-2.7c0.5-1.27,1.4-1.89,2.75-1.89C373.65,31.87,374.39,32.22,374.96,32.89z"/>
	<path class="st0" d="M389.93,32.02c-0.42-0.64-1.03-1.16-1.82-1.56c-0.79-0.4-1.62-0.6-2.46-0.6c-1.67,0-3.04,0.61-4.08,1.81
		c-1.03,1.19-1.56,2.77-1.56,4.68c0,1.94,0.52,3.47,1.55,4.56c1.03,1.08,2.3,1.63,3.78,1.63c0.6,0,1.15-0.06,1.63-0.18
		c0.9-0.21,1.66-0.62,2.26-1.21c0.36-0.34,0.7-0.79,0.99-1.33c0.29-0.54,0.47-1.04,0.52-1.48l0.01-0.12h-2.14l-0.02,0.08
		c-0.14,0.5-0.38,0.96-0.7,1.34c-0.59,0.66-1.39,0.99-2.38,0.99c-1.06,0-1.85-0.35-2.35-1.04c-0.49-0.68-0.77-1.6-0.82-2.72h8.57
		v-0.1c0-1.19-0.06-2.07-0.18-2.61C390.6,33.34,390.33,32.62,389.93,32.02z M385.52,31.8c1.21,0,2.09,0.46,2.6,1.38
		c0.27,0.47,0.45,1.12,0.53,1.9h-6.27c0.05-0.93,0.37-1.72,0.94-2.33C383.91,32.12,384.65,31.8,385.52,31.8z"/>
	<path class="st0" d="M399.05,29.86c-0.78,0-1.49,0.16-2.13,0.46c-0.57,0.27-1.11,0.71-1.62,1.29v-1.49h-2.09v11.99h2.19v-6.28
		c0-0.76,0.05-1.35,0.15-1.75c0.1-0.4,0.3-0.79,0.62-1.16c0.4-0.47,0.86-0.78,1.38-0.94c0.29-0.09,0.67-0.14,1.12-0.14
		c0.89,0,1.48,0.34,1.82,1.04c0.2,0.42,0.31,0.99,0.31,1.69v7.53h2.22v-7.66c0-1.2-0.17-2.14-0.5-2.79
		C401.93,30.47,400.75,29.86,399.05,29.86z"/>
	<path class="st0" d="M413.1,37.82c-0.18,0.85-0.5,1.52-0.97,2c-0.46,0.48-1.09,0.72-1.88,0.72c-1.04,0-1.78-0.38-2.27-1.16
		c-0.49-0.78-0.73-1.77-0.73-2.92c0-1.15,0.17-2.13,0.52-2.92c0.53-1.2,1.38-1.78,2.61-1.78c0.89,0,1.54,0.23,1.93,0.68
		c0.4,0.46,0.67,1.05,0.78,1.76l0.01,0.09h2.13l-0.01-0.12c-0.17-1.6-0.69-2.74-1.54-3.41c-0.85-0.66-1.96-0.99-3.3-0.99
		c-1.58,0-2.9,0.59-3.92,1.76c-1.02,1.17-1.53,2.81-1.53,4.9c0,1.7,0.47,3.15,1.4,4.29c0.93,1.15,2.2,1.73,3.77,1.73
		c1.39,0,2.55-0.37,3.44-1.11c0.9-0.74,1.46-1.91,1.69-3.49l0.02-0.12h-2.13L413.1,37.82z"/>
	<path class="st0" d="M421.3,39.49l-3.08-9.37h-2.47l4.39,12.23c-0.1,0.26-0.26,0.65-0.48,1.17c-0.29,0.7-0.37,0.86-0.39,0.88
		c-0.11,0.16-0.25,0.3-0.41,0.42c-0.15,0.11-0.4,0.16-0.75,0.16c-0.11,0-0.24-0.01-0.39-0.03c-0.15-0.02-0.4-0.08-0.73-0.17
		l-0.13-0.04v2.02l0.08,0.02c0.22,0.06,0.41,0.1,0.57,0.12c0.15,0.02,0.38,0.03,0.66,0.03c1.17,0,2.02-0.35,2.5-1.03
		c0.48-0.67,1.27-2.48,2.43-5.52c0.48-1.27,1.09-2.94,1.81-4.96c0.97-2.73,1.58-4.42,1.86-5.17l0.05-0.14h-2.42L421.3,39.49z"/>
	<path class="st0" d="M440.71,29.78c-1.71,0-3.09,0.6-4.1,1.8c-1.01,1.19-1.52,2.8-1.52,4.79c0,1.87,0.49,3.37,1.45,4.48
		c0.96,1.11,2.28,1.68,3.91,1.68c1.96,0,3.42-0.64,4.36-1.9c0.93-1.25,1.4-2.85,1.4-4.77c0-1.98-0.54-3.51-1.59-4.54
		C443.55,30.3,442.23,29.78,440.71,29.78z M443.21,39.19c-0.47,0.96-1.31,1.43-2.58,1.43c-1.14,0-1.98-0.41-2.5-1.21
		c-0.53-0.81-0.8-1.85-0.8-3.07c0-1.28,0.27-2.39,0.8-3.29c0.53-0.9,1.35-1.33,2.52-1.33c1.32,0,2.22,0.51,2.76,1.57
		c0.34,0.67,0.51,1.56,0.51,2.63C443.92,37.12,443.68,38.22,443.21,39.19z"/>
	<path class="st0" d="M453.41,25.52c-1.56-0.09-2.63,0.28-3.15,1.05c-0.27,0.4-0.42,1.02-0.45,1.86v1.74h-1.64v1.77h1.64v10.17h2.17
		V31.95h1.98v-1.77h-1.98c0-1.2,0.06-1.95,0.17-2.24c0.12-0.3,0.53-0.42,1.25-0.39c0.09,0,0.24,0.01,0.45,0.03l0.11,0.01v-2.01
		l-0.09-0.01C453.7,25.54,453.55,25.53,453.41,25.52z"/>
	<path class="st0" d="M473.42,36.06c-0.21,1.05-0.54,1.9-0.97,2.54c-0.8,1.2-1.99,1.81-3.53,1.81c-1.68,0-2.96-0.58-3.8-1.73
		c-0.85-1.15-1.28-2.68-1.28-4.55c0-2.28,0.48-3.99,1.42-5.08c0.94-1.09,2.19-1.64,3.71-1.64c1.25,0,2.23,0.3,2.92,0.89
		c0.69,0.59,1.16,1.41,1.39,2.42l0.02,0.08h2.33l-0.01-0.11c-0.13-1.39-0.76-2.65-1.89-3.74c-1.13-1.09-2.74-1.65-4.78-1.65
		c-2.39,0-4.3,0.85-5.66,2.53c-1.26,1.54-1.89,3.54-1.89,5.93c0,3.16,0.85,5.53,2.53,7.05c1.28,1.15,2.87,1.73,4.75,1.73
		c2.17,0,3.93-0.71,5.21-2.11c1.07-1.16,1.71-2.62,1.9-4.34l0.01-0.12h-2.34L473.42,36.06z"/>
	<path class="st0" d="M488.45,40.55c-0.11,0.01-0.2,0.02-0.29,0.02c-0.16,0-0.37-0.02-0.45-0.14c-0.07-0.11-0.11-0.25-0.11-0.44
		V33.2c0-1.15-0.45-2.01-1.34-2.55c-0.88-0.54-2.03-0.81-3.43-0.81c-1.21,0-2.29,0.29-3.2,0.87c-0.93,0.59-1.42,1.64-1.46,3.13
		l0,0.11h2.05l0.01-0.09c0.07-0.59,0.22-1.04,0.45-1.33c0.41-0.53,1.12-0.8,2.11-0.8c0.87,0,1.54,0.15,2,0.44
		c0.45,0.29,0.67,0.74,0.67,1.39c0,0.31-0.04,0.55-0.12,0.72c-0.14,0.29-0.41,0.46-0.83,0.51l-3.16,0.4
		c-1.12,0.14-2.04,0.52-2.74,1.13c-0.7,0.62-1.06,1.5-1.06,2.62c0,1.02,0.36,1.88,1.07,2.56c0.71,0.68,1.64,1.02,2.75,1.02
		c0.92,0,1.78-0.2,2.54-0.59c0.68-0.35,1.22-0.76,1.63-1.22c0.07,0.37,0.18,0.67,0.32,0.9c0.33,0.51,0.86,0.77,1.57,0.77
		c0.28,0,0.51-0.01,0.67-0.03c0.17-0.02,0.4-0.08,0.72-0.17l0.08-0.02v-1.67l-0.12,0.02C488.68,40.52,488.56,40.54,488.45,40.55z
		 M485.42,36.21v1.41c0,1.18-0.52,2.01-1.59,2.53c-0.63,0.31-1.3,0.47-1.98,0.47c-0.55,0-1.02-0.16-1.42-0.47
		c-0.4-0.31-0.59-0.73-0.59-1.27c0-0.72,0.28-1.23,0.87-1.56c0.35-0.2,0.88-0.34,1.58-0.44l1.2-0.15c0.37-0.04,0.75-0.12,1.13-0.22
		C484.93,36.43,485.2,36.32,485.42,36.21z"/>
	<path class="st0" d="M496.48,29.86c-0.78,0-1.49,0.16-2.13,0.46c-0.57,0.27-1.11,0.71-1.62,1.29v-1.49h-2.09v11.99h2.19v-6.28
		c0-0.76,0.05-1.35,0.15-1.75c0.09-0.4,0.3-0.79,0.62-1.16c0.4-0.47,0.86-0.78,1.38-0.94c0.29-0.09,0.67-0.14,1.12-0.14
		c0.89,0,1.48,0.34,1.82,1.04c0.2,0.42,0.31,0.99,0.31,1.69v7.53h2.22v-7.66c0-1.2-0.17-2.14-0.49-2.79
		C499.36,30.47,498.19,29.86,496.48,29.86z"/>
	<path class="st0" d="M513.52,40.55c-0.11,0.01-0.2,0.02-0.29,0.02c-0.16,0-0.37-0.02-0.45-0.14c-0.07-0.11-0.11-0.25-0.11-0.44
		V33.2c0-1.15-0.45-2.01-1.34-2.55c-0.88-0.54-2.03-0.81-3.43-0.81c-1.21,0-2.29,0.29-3.2,0.87c-0.93,0.59-1.42,1.64-1.46,3.13
		l0,0.11h2.05l0.01-0.09c0.07-0.59,0.22-1.04,0.45-1.33c0.41-0.53,1.12-0.8,2.11-0.8c0.87,0,1.54,0.15,2,0.44
		c0.45,0.29,0.67,0.74,0.67,1.39c0,0.31-0.04,0.55-0.12,0.72c-0.14,0.29-0.41,0.46-0.83,0.51l-3.16,0.4
		c-1.12,0.14-2.04,0.52-2.74,1.13c-0.7,0.62-1.06,1.5-1.06,2.62c0,1.02,0.36,1.88,1.07,2.56c0.71,0.68,1.63,1.02,2.75,1.02
		c0.92,0,1.78-0.2,2.55-0.59c0.68-0.35,1.22-0.76,1.63-1.22c0.07,0.37,0.18,0.67,0.32,0.9c0.33,0.51,0.86,0.77,1.57,0.77
		c0.28,0,0.51-0.01,0.67-0.03c0.17-0.02,0.4-0.08,0.72-0.17l0.08-0.02v-1.67l-0.12,0.02C513.74,40.52,513.63,40.54,513.52,40.55z
		 M510.48,36.21v1.41c0,1.18-0.52,2.01-1.59,2.53c-0.63,0.31-1.3,0.47-1.98,0.47c-0.54,0-1.02-0.16-1.42-0.47
		c-0.39-0.31-0.59-0.73-0.59-1.27c0-0.72,0.28-1.23,0.87-1.56c0.35-0.2,0.88-0.34,1.58-0.44l1.2-0.15c0.37-0.04,0.75-0.12,1.13-0.22
		C509.99,36.43,510.26,36.32,510.48,36.21z"/>
	<path class="st0" d="M523.38,31.46c-0.38-0.44-0.72-0.76-1.04-0.95c-0.62-0.39-1.4-0.59-2.31-0.59c-1.65,0-2.94,0.65-3.83,1.93
		c-0.88,1.27-1.33,2.79-1.33,4.52c0,1.85,0.49,3.36,1.46,4.47c0.97,1.12,2.14,1.69,3.48,1.69c0.82,0,1.57-0.17,2.2-0.5
		c0.56-0.29,1.05-0.73,1.48-1.33v1.4h1.99V25.69h-2.11V31.46z M522.57,32.89c0.59,0.69,0.88,1.78,0.88,3.24
		c0,1.45-0.29,2.57-0.86,3.33c-0.56,0.76-1.29,1.14-2.17,1.14c-1.13,0-1.96-0.41-2.47-1.23c-0.52-0.83-0.78-1.88-0.78-3.11
		c0-1.45,0.3-2.56,0.9-3.3c0.59-0.73,1.38-1.11,2.33-1.11C521.26,31.85,521.99,32.2,522.57,32.89z"/>
	<path class="st0" d="M538.58,40.55c-0.11,0.01-0.2,0.02-0.29,0.02c-0.16,0-0.37-0.02-0.45-0.14c-0.07-0.11-0.11-0.25-0.11-0.44
		V33.2c0-1.15-0.45-2.01-1.34-2.55c-0.88-0.54-2.03-0.81-3.43-0.81c-1.21,0-2.29,0.29-3.2,0.87c-0.93,0.59-1.42,1.64-1.46,3.13
		l0,0.11h2.05l0.01-0.09c0.07-0.59,0.22-1.04,0.45-1.33c0.41-0.53,1.12-0.8,2.11-0.8c0.87,0,1.54,0.15,2,0.44
		c0.45,0.29,0.67,0.74,0.67,1.39c0,0.31-0.04,0.55-0.12,0.72c-0.14,0.29-0.41,0.46-0.83,0.51l-3.16,0.4
		c-1.12,0.14-2.04,0.52-2.74,1.13c-0.7,0.62-1.06,1.5-1.06,2.62c0,1.02,0.36,1.88,1.07,2.56c0.71,0.68,1.63,1.02,2.75,1.02
		c0.92,0,1.78-0.2,2.55-0.59c0.68-0.35,1.22-0.76,1.63-1.22c0.07,0.37,0.18,0.67,0.32,0.9c0.33,0.51,0.86,0.77,1.57,0.77
		c0.28,0,0.51-0.01,0.67-0.03c0.17-0.02,0.4-0.08,0.72-0.17l0.08-0.02v-1.67l-0.12,0.02C538.8,40.52,538.69,40.54,538.58,40.55z
		 M535.55,36.21v1.41c0,1.18-0.52,2.01-1.59,2.53c-0.63,0.31-1.3,0.47-1.98,0.47c-0.54,0-1.02-0.16-1.42-0.47
		c-0.39-0.31-0.59-0.73-0.59-1.27c0-0.72,0.28-1.23,0.87-1.56c0.35-0.2,0.88-0.34,1.58-0.44l1.2-0.15c0.37-0.04,0.75-0.12,1.13-0.22
		C535.06,36.43,535.33,36.32,535.55,36.21z"/>
	<path class="st0" d="M119.99,0.43l-0.02-0.07h-2.62l-6.11,16.23l-0.05,0.14h2.47l1.75-4.84h6.19l1.69,4.84h2.62L119.99,0.43z
		 M120.9,9.9h-4.78l2.44-6.72L120.9,9.9z"/>
	<path class="st0" d="M135.05,6.15c-0.33-0.39-0.66-0.7-0.98-0.92c-0.7-0.46-1.53-0.7-2.47-0.7c-1.38,0-2.58,0.57-3.56,1.7
		c-0.97,1.12-1.47,2.7-1.47,4.69c0,2.11,0.49,3.65,1.46,4.57c0.97,0.92,2.11,1.39,3.41,1.39c0.93,0,1.68-0.15,2.25-0.45
		c0.48-0.25,0.91-0.63,1.27-1.11c0,1.43-0.13,2.44-0.38,3.01c-0.45,1.04-1.39,1.54-2.87,1.54c-0.92,0-1.6-0.21-2.03-0.63
		c-0.27-0.27-0.45-0.66-0.54-1.17l-0.02-0.09h-2.21l0.01,0.11c0.11,1.24,0.61,2.16,1.5,2.75c0.88,0.58,1.97,0.87,3.25,0.87
		c2.3,0,3.9-0.83,4.73-2.46c0.44-0.88,0.67-2.08,0.67-3.59V4.85h-2.03V6.15z M134.18,7.51c0.58,0.68,0.87,1.75,0.87,3.18
		c0,0.95-0.16,1.79-0.47,2.5c-0.56,1.25-1.51,1.86-2.89,1.86c-0.88,0-1.56-0.33-2.08-1c-0.52-0.67-0.78-1.67-0.78-2.97
		c0-1.11,0.13-2.02,0.4-2.7c0.5-1.27,1.4-1.89,2.75-1.89C132.86,6.49,133.61,6.83,134.18,7.51z"/>
	<path class="st0" d="M149.15,6.64c-0.42-0.64-1.03-1.16-1.82-1.56c-0.79-0.4-1.62-0.6-2.46-0.6c-1.67,0-3.04,0.61-4.08,1.81
		c-1.03,1.19-1.56,2.77-1.56,4.68c0,1.94,0.52,3.47,1.55,4.56c1.03,1.08,2.3,1.63,3.78,1.63c0.6,0,1.15-0.06,1.63-0.18
		c0.9-0.21,1.66-0.62,2.26-1.21c0.36-0.34,0.7-0.79,0.99-1.33c0.29-0.54,0.47-1.04,0.52-1.48l0.01-0.12h-2.14l-0.02,0.08
		c-0.14,0.51-0.38,0.96-0.71,1.34c-0.59,0.66-1.39,0.99-2.38,0.99c-1.06,0-1.85-0.35-2.35-1.04c-0.49-0.68-0.77-1.6-0.82-2.72h8.57
		v-0.1c0-1.19-0.06-2.07-0.18-2.61C149.82,7.95,149.55,7.24,149.15,6.64z M144.74,6.41c1.21,0,2.09,0.46,2.6,1.38
		c0.27,0.48,0.45,1.12,0.53,1.9h-6.27c0.05-0.93,0.37-1.72,0.94-2.33C143.13,6.73,143.87,6.41,144.74,6.41z"/>
	<path class="st0" d="M162.24,16.73V9.07c0-1.2-0.17-2.14-0.5-2.79c-0.6-1.2-1.77-1.81-3.48-1.81c-0.78,0-1.49,0.16-2.13,0.46
		c-0.57,0.27-1.11,0.71-1.62,1.29V4.74h-2.09v11.99h2.19v-6.28c0-0.76,0.05-1.35,0.15-1.75c0.1-0.4,0.3-0.79,0.62-1.16
		c0.39-0.47,0.86-0.78,1.38-0.94c0.29-0.09,0.67-0.14,1.12-0.14c0.89,0,1.49,0.34,1.82,1.04c0.21,0.43,0.31,0.99,0.31,1.69v7.53
		H162.24z"/>
	<path class="st0" d="M172.32,12.44c-0.18,0.85-0.5,1.52-0.97,2c-0.46,0.48-1.09,0.72-1.88,0.72c-1.04,0-1.78-0.38-2.27-1.16
		c-0.49-0.79-0.73-1.77-0.73-2.92c0-1.15,0.17-2.13,0.52-2.91c0.53-1.2,1.38-1.78,2.61-1.78c0.89,0,1.54,0.23,1.93,0.68
		c0.4,0.46,0.66,1.05,0.78,1.76l0.01,0.09h2.13l-0.01-0.12c-0.17-1.6-0.69-2.74-1.54-3.41c-0.85-0.66-1.96-0.99-3.3-0.99
		c-1.58,0-2.9,0.59-3.92,1.76c-1.02,1.17-1.53,2.81-1.53,4.9c0,1.7,0.47,3.15,1.4,4.29c0.93,1.15,2.2,1.73,3.77,1.73
		c1.39,0,2.55-0.37,3.44-1.11c0.9-0.74,1.46-1.91,1.69-3.49l0.02-0.12h-2.13L172.32,12.44z"/>
	<path class="st0" d="M185.48,6.64c-0.42-0.64-1.03-1.16-1.82-1.56c-0.79-0.4-1.62-0.6-2.46-0.6c-1.67,0-3.04,0.61-4.08,1.81
		c-1.03,1.19-1.56,2.77-1.56,4.68c0,1.94,0.52,3.47,1.55,4.56c1.03,1.08,2.3,1.63,3.78,1.63c0.6,0,1.15-0.06,1.63-0.18
		c0.89-0.21,1.66-0.62,2.26-1.21c0.36-0.34,0.7-0.79,0.99-1.33c0.3-0.54,0.47-1.04,0.52-1.48l0.01-0.12h-2.14l-0.02,0.08
		c-0.14,0.5-0.38,0.96-0.71,1.34c-0.59,0.66-1.39,0.99-2.38,0.99c-1.06,0-1.85-0.35-2.35-1.04c-0.49-0.68-0.77-1.6-0.82-2.72h8.57
		v-0.1c0-1.21-0.06-2.07-0.18-2.61C186.15,7.95,185.88,7.24,185.48,6.64z M181.07,6.41c1.23,0,2.08,0.45,2.6,1.38
		c0.27,0.47,0.45,1.11,0.53,1.9h-6.27c0.05-0.93,0.37-1.72,0.94-2.33C179.46,6.73,180.2,6.41,181.07,6.41z"/>
	<path class="st0" d="M206.55,16.73V0.31h-2.11v5.77c-0.38-0.44-0.73-0.76-1.04-0.96c-0.62-0.39-1.4-0.59-2.31-0.59
		c-1.65,0-2.94,0.65-3.83,1.93c-0.88,1.27-1.33,2.79-1.33,4.52c0,1.85,0.49,3.36,1.46,4.47c0.97,1.12,2.14,1.69,3.48,1.69
		c0.83,0,1.57-0.17,2.21-0.5c0.56-0.29,1.05-0.73,1.48-1.33v1.4H206.55z M204.52,10.74c0,1.44-0.29,2.57-0.86,3.33
		c-0.56,0.76-1.29,1.14-2.17,1.14c-1.13,0-1.96-0.41-2.47-1.23c-0.52-0.83-0.78-1.88-0.78-3.11c0-1.45,0.3-2.56,0.9-3.3
		c0.59-0.73,1.38-1.11,2.33-1.11c0.85,0,1.58,0.35,2.17,1.04C204.22,8.2,204.52,9.29,204.52,10.74z"/>
	<path class="st0" d="M217.22,12.91c-0.14,0.51-0.38,0.96-0.71,1.34c-0.59,0.66-1.39,0.99-2.38,0.99c-1.06,0-1.85-0.35-2.35-1.04
		c-0.49-0.68-0.77-1.6-0.82-2.72h8.57v-0.1c0-1.19-0.06-2.07-0.18-2.61c-0.13-0.8-0.4-1.52-0.8-2.12c-0.42-0.64-1.03-1.16-1.82-1.56
		c-0.79-0.4-1.62-0.6-2.46-0.6c-1.67,0-3.04,0.61-4.08,1.81c-1.03,1.19-1.56,2.77-1.56,4.68c0,1.94,0.52,3.47,1.55,4.56
		c1.03,1.08,2.3,1.63,3.78,1.63c0.6,0,1.15-0.06,1.63-0.18c0.9-0.21,1.66-0.62,2.26-1.21c0.36-0.34,0.7-0.79,0.99-1.33
		c0.29-0.54,0.47-1.04,0.52-1.48l0.01-0.12h-2.14L217.22,12.91z M211.01,9.69c0.05-0.93,0.37-1.72,0.94-2.33
		c0.59-0.63,1.33-0.95,2.19-0.95c1.21,0,2.09,0.46,2.6,1.38c0.27,0.48,0.45,1.12,0.53,1.9H211.01z"/>
	<rect x="229.05" y="0.36" class="st0" width="2.19" height="16.37"/>
	<path class="st0" d="M241.45,15.31c0.07,0.37,0.18,0.67,0.32,0.9c0.33,0.52,0.86,0.78,1.57,0.78c0.28,0,0.51-0.01,0.67-0.03
		c0.17-0.02,0.4-0.08,0.72-0.17l0.08-0.02V15.1l-0.12,0.02c-0.12,0.02-0.24,0.04-0.34,0.05c-0.4,0.04-0.65,0-0.74-0.13
		c-0.07-0.11-0.11-0.25-0.11-0.44V7.82c0-1.15-0.45-2.01-1.34-2.55c-0.88-0.54-2.03-0.81-3.43-0.81c-1.21,0-2.29,0.29-3.2,0.87
		c-0.93,0.59-1.42,1.64-1.46,3.13l0,0.11h2.05l0.01-0.09c0.07-0.59,0.22-1.04,0.45-1.33c0.41-0.53,1.12-0.8,2.11-0.8
		c0.87,0,1.54,0.15,2,0.44c0.45,0.29,0.67,0.74,0.67,1.39c0,0.31-0.04,0.55-0.12,0.72c-0.14,0.29-0.41,0.46-0.83,0.51l-3.16,0.4
		c-1.12,0.14-2.04,0.52-2.74,1.14c-0.7,0.62-1.06,1.5-1.06,2.62c0,1.02,0.36,1.88,1.07,2.56c0.71,0.68,1.64,1.02,2.75,1.02
		c0.92,0,1.78-0.2,2.55-0.59C240.5,16.19,241.05,15.78,241.45,15.31z M241.31,10.82v1.41c0,1.18-0.52,2.01-1.59,2.53
		c-0.63,0.31-1.3,0.47-1.98,0.47c-0.55,0-1.02-0.16-1.42-0.47c-0.4-0.31-0.59-0.73-0.59-1.27c0-0.72,0.28-1.23,0.87-1.56
		c0.35-0.2,0.88-0.34,1.58-0.44l1.2-0.15c0.37-0.04,0.75-0.12,1.13-0.22C240.82,11.04,241.09,10.94,241.31,10.82z"/>
	<path class="st0" d="M259.16,14.84c-0.55,0.31-1.2,0.46-1.92,0.46c-1.22,0-2.08-0.31-2.57-0.92c-0.26-0.33-0.43-0.83-0.48-1.46
		l-0.01-0.1h-2.11l0,0.11c0.05,1.19,0.46,2.21,1.21,3.02c0.76,0.81,2.05,1.23,3.85,1.23c1.67,0,2.93-0.39,3.75-1.17
		c0.82-0.78,1.24-1.72,1.24-2.79c0-1.12-0.4-1.95-1.2-2.48c-0.51-0.33-1.47-0.66-2.95-1.02l-1.33-0.32c-0.57-0.14-1-0.29-1.29-0.47
		c-0.49-0.29-0.73-0.66-0.73-1.14c0-0.44,0.18-0.78,0.55-1.04c0.37-0.27,0.94-0.41,1.68-0.41c1.11,0,1.9,0.25,2.34,0.74
		c0.27,0.35,0.43,0.74,0.46,1.16l0.01,0.1h2.07l0-0.1c0.02-0.78-0.23-1.52-0.75-2.2c-0.81-1.06-2.15-1.6-3.98-1.6
		c-1.39,0-2.52,0.36-3.35,1.06c-0.83,0.71-1.26,1.64-1.26,2.79c0,0.98,0.45,1.76,1.35,2.31c0.49,0.31,1.26,0.6,2.29,0.85l1.6,0.4
		c0.84,0.21,1.42,0.39,1.7,0.55c0.42,0.25,0.63,0.6,0.63,1.07C259.96,14.08,259.7,14.54,259.16,14.84z"/>
	<path class="st0" d="M271.51,15.31c0.07,0.37,0.18,0.67,0.32,0.9c0.33,0.52,0.86,0.78,1.57,0.78c0.28,0,0.51-0.01,0.68-0.03
		c0.17-0.02,0.4-0.08,0.72-0.17l0.07-0.02V15.1l-0.12,0.02c-0.12,0.02-0.24,0.04-0.34,0.05c-0.11,0.01-0.2,0.02-0.29,0.02
		c-0.16,0-0.37-0.02-0.45-0.14c-0.07-0.11-0.11-0.25-0.11-0.44V7.82c0-1.15-0.45-2.01-1.34-2.55c-0.88-0.54-2.03-0.81-3.43-0.81
		c-1.21,0-2.29,0.29-3.21,0.87c-0.93,0.59-1.42,1.64-1.46,3.13l0,0.11h2.05l0.01-0.09c0.07-0.59,0.22-1.04,0.45-1.33
		c0.41-0.53,1.12-0.8,2.12-0.8c0.87,0,1.54,0.15,2,0.44c0.45,0.29,0.67,0.74,0.67,1.39c0,0.31-0.04,0.55-0.12,0.72
		c-0.14,0.29-0.41,0.46-0.83,0.51l-3.16,0.4c-1.12,0.14-2.04,0.52-2.74,1.14c-0.7,0.62-1.06,1.5-1.06,2.62
		c0,1.02,0.36,1.89,1.07,2.56c0.71,0.68,1.64,1.02,2.75,1.02c0.92,0,1.78-0.2,2.54-0.59C270.56,16.19,271.11,15.78,271.51,15.31z
		 M271.37,10.82v1.41c0,1.18-0.52,2.01-1.59,2.53c-0.63,0.31-1.3,0.47-1.98,0.47c-0.54,0-1.02-0.16-1.42-0.47
		c-0.39-0.31-0.59-0.73-0.59-1.27c0-0.72,0.28-1.23,0.86-1.56c0.35-0.2,0.88-0.34,1.58-0.44l1.2-0.15c0.37-0.04,0.75-0.12,1.14-0.22
		C270.88,11.04,271.15,10.94,271.37,10.82z"/>
	<path class="st0" d="M282.06,6.47c0.89,0,1.48,0.34,1.82,1.04c0.21,0.42,0.31,0.99,0.31,1.69v7.53h2.22V9.07
		c0-1.2-0.17-2.13-0.5-2.79c-0.6-1.2-1.78-1.81-3.48-1.81c-0.78,0-1.49,0.16-2.13,0.46c-0.56,0.27-1.11,0.71-1.62,1.29V4.74h-2.09
		v11.99h2.19v-6.28c0-0.76,0.05-1.35,0.14-1.75c0.1-0.4,0.3-0.79,0.62-1.16c0.39-0.47,0.86-0.78,1.38-0.94
		C281.22,6.52,281.6,6.47,282.06,6.47z"/>
	<path class="st0" d="M293.54,16.73l0.08-0.02v-1.77l-0.12,0.02c-0.14,0.02-0.27,0.03-0.38,0.04c-0.5,0.02-0.85-0.01-1.03-0.1
		c-0.24-0.12-0.36-0.36-0.36-0.73V6.57h1.88V4.74h-1.88V1.45h-2.21v3.29h-1.6v1.83h1.6v7.7c0,0.77,0.17,1.41,0.51,1.9
		c0.35,0.5,1.01,0.75,1.97,0.75c0.29,0,0.56-0.01,0.81-0.04C293.06,16.85,293.31,16.8,293.54,16.73z"/>
	<polygon class="st0" points="302.93,0 300.19,0 298.04,3.39 299.8,3.39 	"/>
	<path class="st0" d="M305.47,12.83h-2.14l-0.02,0.08c-0.14,0.51-0.38,0.96-0.7,1.34c-0.59,0.66-1.39,0.99-2.38,0.99
		c-1.06,0-1.85-0.35-2.35-1.04c-0.49-0.68-0.77-1.6-0.82-2.72h8.57v-0.1c0-1.19-0.06-2.07-0.18-2.61c-0.13-0.8-0.4-1.52-0.8-2.12
		c-0.42-0.64-1.03-1.16-1.82-1.56c-0.79-0.4-1.62-0.6-2.46-0.6c-1.67,0-3.05,0.61-4.08,1.81c-1.03,1.19-1.56,2.77-1.56,4.68
		c0,1.94,0.52,3.47,1.55,4.56c1.03,1.08,2.3,1.63,3.78,1.63c0.6,0,1.15-0.06,1.63-0.18c0.9-0.21,1.66-0.62,2.27-1.21
		c0.36-0.34,0.7-0.79,0.99-1.33c0.29-0.54,0.47-1.04,0.53-1.48L305.47,12.83z M297.1,9.69c0.05-0.93,0.37-1.72,0.94-2.33
		c0.59-0.63,1.33-0.95,2.2-0.95c1.23,0,2.08,0.45,2.6,1.38c0.27,0.48,0.45,1.12,0.53,1.9H297.1z"/>
	<path class="st0" d="M117.87,29.83c-0.92,0-1.73,0.23-2.42,0.68c-0.41,0.25-0.79,0.6-1.14,1.03v-1.36h-2.15V46.8h2.19v-5.84
		c0.37,0.43,0.71,0.74,1.02,0.93c0.62,0.4,1.39,0.6,2.3,0.6c1.15,0,2.18-0.36,3.05-1.07c1.37-1.12,2.06-2.99,2.06-5.58
		c0-1.92-0.48-3.42-1.43-4.45C120.41,30.35,119.24,29.83,117.87,29.83z M120.54,36.04c0,1.51-0.3,2.66-0.9,3.41
		c-0.59,0.74-1.34,1.12-2.23,1.12c-1.34,0-2.23-0.58-2.73-1.76c-0.27-0.62-0.4-1.39-0.4-2.28c0-1.11,0.14-2.04,0.4-2.76
		c0.5-1.34,1.39-1.99,2.73-1.99c1.33,0,2.23,0.62,2.73,1.88C120.41,34.31,120.54,35.12,120.54,36.04z"/>
	<path class="st0" d="M133.08,36.01c0,1.13-0.13,2.03-0.39,2.68c-0.47,1.2-1.34,1.78-2.65,1.78c-0.9,0-1.5-0.33-1.83-1
		c-0.18-0.37-0.27-0.85-0.27-1.43v-7.93h-2.23v8.11c0,1.02,0.17,1.84,0.5,2.46c0.62,1.15,1.78,1.74,3.46,1.74
		c1.08,0,2.01-0.32,2.76-0.95c0.29-0.24,0.55-0.52,0.76-0.84l-0.02,1.47h2.08V30.11h-2.19V36.01z"/>
	<path class="st0" d="M144.59,29.8c-0.72,0-1.4,0.15-2.01,0.46c-0.53,0.26-1,0.63-1.41,1.09v-5.68h-2.13v16.43h2.04v-1.3
		c0.36,0.45,0.7,0.79,1.02,1.01c0.63,0.44,1.42,0.67,2.33,0.67c1.63,0,2.93-0.64,3.85-1.89c0.91-1.25,1.38-2.83,1.38-4.71
		c0-1.98-0.47-3.51-1.4-4.53C147.32,30.33,146.09,29.8,144.59,29.8z M147.41,35.98c0,1.37-0.26,2.48-0.78,3.31
		c-0.52,0.83-1.28,1.23-2.33,1.23c-1.39,0-2.32-0.62-2.83-1.88c-0.27-0.67-0.41-1.57-0.41-2.66c0-1.5,0.33-2.58,0.99-3.23
		c0.66-0.64,1.43-0.97,2.31-0.97c1.01,0,1.75,0.38,2.27,1.17C147.15,33.75,147.41,34.77,147.41,35.98z"/>
	<rect x="152.24" y="25.73" class="st0" width="2.19" height="16.37"/>
	<rect x="157.19" y="30.17" class="st0" width="2.22" height="11.94"/>
	<rect x="157.19" y="25.73" class="st0" width="2.22" height="2.45"/>
	<path class="st0" d="M170.35,31.52c-0.29-0.39-0.58-0.7-0.89-0.92c-0.68-0.5-1.53-0.76-2.52-0.76c-1.5,0-2.74,0.63-3.68,1.86
		c-0.94,1.22-1.41,2.81-1.41,4.71c0,2.03,0.51,3.56,1.51,4.56c1,1,2.16,1.5,3.44,1.5c0.88,0,1.64-0.16,2.23-0.48
		c0.49-0.26,0.9-0.6,1.21-1.02v5.82h2.19V30.11h-2.08V31.52z M169.86,33.5c0.31,0.67,0.46,1.51,0.46,2.51
		c0,1.09-0.14,1.99-0.42,2.69c-0.51,1.26-1.41,1.87-2.75,1.87c-1.27,0-2.13-0.58-2.62-1.77c-0.28-0.67-0.42-1.52-0.42-2.52
		c0-1.52,0.3-2.66,0.89-3.38c0.59-0.72,1.3-1.08,2.12-1.08C168.45,31.81,169.34,32.36,169.86,33.5z"/>
	<path class="st0" d="M182.5,36.01c0,1.13-0.13,2.03-0.39,2.68c-0.47,1.2-1.34,1.78-2.65,1.78c-0.9,0-1.5-0.33-1.82-1
		c-0.18-0.37-0.27-0.85-0.27-1.43v-7.93h-2.23v8.11c0,1.02,0.17,1.84,0.5,2.46c0.61,1.15,1.78,1.74,3.46,1.74
		c1.08,0,2.01-0.32,2.77-0.95c0.29-0.24,0.55-0.52,0.76-0.84l-0.02,1.47h2.08V30.11h-2.19V36.01z"/>
	<path class="st0" d="M196.96,32.01c-0.42-0.64-1.03-1.16-1.82-1.56c-0.79-0.4-1.62-0.6-2.46-0.6c-1.67,0-3.04,0.61-4.08,1.81
		c-1.03,1.19-1.56,2.77-1.56,4.68c0,1.94,0.52,3.47,1.55,4.56c1.03,1.08,2.3,1.63,3.78,1.63c0.6,0,1.15-0.06,1.63-0.18
		c0.9-0.21,1.66-0.62,2.26-1.21c0.36-0.34,0.7-0.79,0.99-1.33c0.29-0.54,0.47-1.04,0.52-1.48l0.01-0.12h-2.15l-0.02,0.08
		c-0.14,0.5-0.38,0.96-0.71,1.34c-0.59,0.66-1.39,0.99-2.38,0.99c-1.06,0-1.85-0.35-2.35-1.04c-0.49-0.68-0.77-1.6-0.82-2.72h8.57
		v-0.1c0-1.19-0.06-2.07-0.18-2.61C197.63,33.32,197.36,32.61,196.96,32.01z M192.55,31.78c1.21,0,2.09,0.46,2.6,1.38
		c0.27,0.48,0.45,1.12,0.53,1.9h-6.27c0.05-0.93,0.37-1.72,0.94-2.33C190.95,32.1,191.68,31.78,192.55,31.78z"/>
	<path class="st0" d="M214.62,31.45c-0.38-0.44-0.73-0.76-1.04-0.96c-0.62-0.39-1.4-0.59-2.31-0.59c-1.65,0-2.94,0.65-3.83,1.93
		c-0.88,1.27-1.33,2.79-1.33,4.52c0,1.85,0.49,3.36,1.46,4.47c0.97,1.12,2.14,1.69,3.48,1.69c0.83,0,1.57-0.17,2.21-0.5
		c0.56-0.29,1.05-0.73,1.48-1.33v1.4h1.99V25.68h-2.11V31.45z M213.82,32.88c0.59,0.69,0.88,1.78,0.88,3.24
		c0,1.45-0.29,2.57-0.86,3.33c-0.56,0.76-1.29,1.14-2.16,1.14c-1.13,0-1.96-0.41-2.47-1.23c-0.52-0.83-0.78-1.88-0.78-3.11
		c0-1.45,0.3-2.56,0.9-3.3c0.59-0.73,1.38-1.11,2.33-1.11C212.5,31.84,213.23,32.19,213.82,32.88z"/>
	<path class="st0" d="M226.8,36.01c0,1.13-0.13,2.03-0.39,2.68c-0.47,1.2-1.34,1.78-2.65,1.78c-0.9,0-1.5-0.33-1.83-1
		c-0.18-0.37-0.27-0.85-0.27-1.43v-7.93h-2.23v8.11c0,1.02,0.17,1.84,0.5,2.46c0.62,1.15,1.78,1.74,3.46,1.74
		c1.08,0,2.01-0.32,2.76-0.95c0.29-0.24,0.54-0.52,0.76-0.84l-0.02,1.47h2.08V30.11h-2.19V36.01z"/>
	<path class="st0" d="M251.21,36.05c-0.21,1.05-0.54,1.9-0.97,2.54c-0.8,1.2-1.99,1.81-3.53,1.81c-1.68,0-2.96-0.58-3.8-1.73
		c-0.85-1.15-1.28-2.68-1.28-4.55c0-2.28,0.48-3.99,1.42-5.08c0.94-1.09,2.18-1.64,3.71-1.64c1.25,0,2.23,0.3,2.92,0.89
		c0.69,0.59,1.16,1.41,1.39,2.42l0.02,0.08h2.33l-0.01-0.11c-0.13-1.39-0.76-2.65-1.89-3.74c-1.13-1.09-2.74-1.65-4.78-1.65
		c-2.39,0-4.3,0.85-5.66,2.53c-1.26,1.54-1.89,3.54-1.89,5.93c0,3.16,0.85,5.53,2.52,7.05c1.28,1.15,2.87,1.73,4.75,1.73
		c2.17,0,3.93-0.71,5.21-2.11c1.07-1.16,1.71-2.62,1.9-4.34l0.01-0.12h-2.33L251.21,36.05z"/>
	<path class="st0" d="M266.24,40.54c-0.11,0.01-0.2,0.02-0.29,0.02c-0.16,0-0.37-0.02-0.45-0.14c-0.07-0.11-0.11-0.25-0.11-0.44
		v-6.79c0-1.15-0.45-2.01-1.34-2.55c-0.88-0.54-2.03-0.81-3.43-0.81c-1.21,0-2.29,0.29-3.2,0.87c-0.93,0.59-1.42,1.64-1.46,3.13
		l0,0.11h2.05l0.01-0.09c0.07-0.59,0.22-1.04,0.45-1.33c0.41-0.53,1.12-0.8,2.11-0.8c0.87,0,1.54,0.15,2,0.44
		c0.45,0.29,0.67,0.74,0.67,1.39c0,0.31-0.04,0.55-0.12,0.72c-0.14,0.29-0.41,0.46-0.83,0.51l-3.16,0.4
		c-1.12,0.14-2.04,0.52-2.74,1.13c-0.7,0.62-1.06,1.5-1.06,2.62c0,1.02,0.36,1.88,1.07,2.56c0.71,0.68,1.64,1.02,2.75,1.02
		c0.92,0,1.78-0.2,2.54-0.59c0.68-0.35,1.22-0.76,1.63-1.22c0.07,0.37,0.18,0.67,0.32,0.9c0.33,0.51,0.86,0.77,1.57,0.77
		c0.28,0,0.51-0.01,0.67-0.03c0.17-0.02,0.4-0.08,0.72-0.17l0.08-0.02v-1.67l-0.12,0.02C266.46,40.51,266.35,40.53,266.24,40.54z
		 M263.21,36.19v1.41c0,1.18-0.52,2.01-1.59,2.53c-0.63,0.31-1.3,0.47-1.98,0.47c-0.55,0-1.02-0.16-1.42-0.47
		c-0.39-0.31-0.59-0.73-0.59-1.27c0-0.72,0.28-1.23,0.87-1.56c0.35-0.2,0.88-0.34,1.58-0.44l1.2-0.15c0.37-0.04,0.75-0.12,1.13-0.22
		C262.72,36.42,262.99,36.31,263.21,36.19z"/>
	<path class="st0" d="M274.27,29.85c-0.77,0-1.49,0.16-2.13,0.46c-0.57,0.27-1.11,0.71-1.62,1.29v-1.49h-2.09v11.99h2.19v-6.28
		c0-0.75,0.05-1.34,0.14-1.75c0.1-0.39,0.31-0.79,0.62-1.16c0.4-0.47,0.86-0.78,1.38-0.94c0.29-0.09,0.67-0.14,1.12-0.14
		c0.89,0,1.48,0.34,1.82,1.04c0.2,0.43,0.31,1,0.31,1.69v7.53h2.22v-7.66c0-1.2-0.17-2.14-0.49-2.79
		C277.15,30.46,275.98,29.85,274.27,29.85z"/>
	<path class="st0" d="M291.31,40.54c-0.4,0.04-0.65,0-0.73-0.12c-0.07-0.11-0.11-0.25-0.11-0.44v-6.79c0-1.15-0.45-2.01-1.34-2.55
		c-0.88-0.54-2.03-0.81-3.43-0.81c-1.21,0-2.29,0.29-3.2,0.87c-0.93,0.59-1.42,1.64-1.46,3.13l0,0.11h2.05l0.01-0.09
		c0.07-0.59,0.22-1.04,0.45-1.33c0.41-0.53,1.12-0.8,2.11-0.8c0.87,0,1.54,0.15,2,0.44c0.45,0.29,0.67,0.74,0.67,1.39
		c0,0.31-0.04,0.55-0.12,0.72c-0.14,0.29-0.41,0.46-0.83,0.51l-3.16,0.4c-1.12,0.14-2.04,0.52-2.74,1.13
		c-0.7,0.62-1.06,1.5-1.06,2.62c0,1.02,0.36,1.88,1.07,2.56c0.71,0.68,1.64,1.02,2.75,1.02c0.92,0,1.78-0.2,2.55-0.59
		c0.68-0.35,1.22-0.76,1.63-1.22c0.07,0.37,0.18,0.67,0.32,0.9c0.33,0.51,0.86,0.77,1.57,0.77c0.28,0,0.51-0.01,0.67-0.03
		c0.17-0.02,0.4-0.08,0.72-0.17l0.08-0.02v-1.67l-0.12,0.02C291.53,40.51,291.41,40.53,291.31,40.54z M288.27,36.19v1.41
		c0,1.18-0.52,2.01-1.59,2.53c-0.63,0.31-1.3,0.47-1.98,0.47c-0.54,0-1.02-0.16-1.42-0.47c-0.39-0.31-0.59-0.73-0.59-1.27
		c0-0.72,0.28-1.23,0.87-1.56c0.35-0.2,0.88-0.34,1.58-0.44l1.2-0.15c0.37-0.04,0.75-0.12,1.13-0.22
		C287.78,36.42,288.05,36.31,288.27,36.19z"/>
	<path class="st0" d="M301.17,31.45c-0.38-0.44-0.73-0.76-1.04-0.96c-0.62-0.39-1.4-0.59-2.31-0.59c-1.65,0-2.94,0.65-3.83,1.93
		c-0.88,1.27-1.33,2.79-1.33,4.52c0,1.85,0.49,3.36,1.46,4.47c0.97,1.12,2.14,1.69,3.47,1.69c0.82,0,1.57-0.17,2.21-0.5
		c0.55-0.29,1.05-0.73,1.48-1.33v1.4h1.99V25.68h-2.11V31.45z M300.36,32.88c0.59,0.69,0.89,1.78,0.89,3.24
		c0,1.45-0.29,2.57-0.86,3.33c-0.56,0.76-1.29,1.14-2.16,1.14c-1.13,0-1.96-0.41-2.47-1.23c-0.52-0.83-0.78-1.88-0.78-3.11
		c0-1.45,0.3-2.56,0.9-3.3c0.59-0.73,1.38-1.11,2.33-1.11C299.05,31.84,299.78,32.19,300.36,32.88z"/>
	<path class="st0" d="M316.26,40.49c-0.12,0.02-0.24,0.04-0.35,0.05c-0.11,0.01-0.2,0.02-0.29,0.02c-0.16,0-0.37-0.02-0.45-0.14
		c-0.07-0.11-0.11-0.25-0.11-0.44v-6.79c0-1.15-0.45-2.01-1.34-2.55c-0.88-0.54-2.03-0.81-3.43-0.81c-1.21,0-2.29,0.29-3.2,0.87
		c-0.93,0.59-1.42,1.64-1.46,3.13l0,0.11h2.05l0.01-0.09c0.07-0.59,0.22-1.04,0.45-1.33c0.41-0.53,1.12-0.8,2.12-0.8
		c0.87,0,1.54,0.15,2,0.44c0.45,0.29,0.67,0.74,0.67,1.39c0,0.31-0.04,0.55-0.12,0.72c-0.14,0.29-0.41,0.46-0.83,0.51l-3.16,0.4
		c-1.12,0.14-2.04,0.52-2.74,1.13c-0.7,0.62-1.06,1.5-1.06,2.62c0,1.02,0.36,1.89,1.07,2.56c0.71,0.68,1.64,1.02,2.75,1.02
		c0.92,0,1.78-0.2,2.54-0.59c0.68-0.35,1.22-0.76,1.63-1.22c0.07,0.37,0.18,0.67,0.32,0.9c0.33,0.51,0.86,0.77,1.57,0.77
		c0.28,0,0.51-0.01,0.67-0.03c0.17-0.02,0.4-0.08,0.72-0.17l0.08-0.02v-1.67L316.26,40.49z M312.89,36.19v1.41
		c0,1.18-0.52,2.01-1.59,2.53c-0.63,0.31-1.3,0.47-1.98,0.47c-0.55,0-1.02-0.16-1.42-0.47c-0.39-0.31-0.59-0.73-0.59-1.27
		c0-0.72,0.28-1.23,0.87-1.56c0.35-0.2,0.88-0.34,1.58-0.44l1.2-0.15c0.37-0.04,0.75-0.12,1.13-0.22
		C312.39,36.42,312.66,36.31,312.89,36.19z"/>
</g>
<g>
</g>
<g>
</g>
<g>
</g>
<g>
</g>
<g>
</g>
<g>
</g>
</svg>
