<?xml version="1.0" standalone="no"?>
<!DOCTYPE svg PUBLIC "-//W3C//DTD SVG 20010904//EN"
 "http://www.w3.org/TR/2001/REC-SVG-20010904/DTD/svg10.dtd">
<svg version="1.0" xmlns="http://www.w3.org/2000/svg"
 width="1929.000000pt" height="178.000000pt" viewBox="0 0 1929.000000 178.000000"
 preserveAspectRatio="xMidYMid meet">

<g transform="translate(0.000000,178.000000) scale(0.100000,-0.100000)"
fill="#000000" stroke="none">
<path d="M10 1055 l0 -715 345 0 345 0 0 715 0 715 -345 0 -345 0 0 -715z"/>
<path d="M2130 1055 l0 -715 348 2 347 3 3 713 2 712 -350 0 -350 0 0 -715z"/>
<path d="M18723 1720 c-18 -27 -33 -52 -33 -55 0 -3 10 -5 23 -5 14 0 43 20
77 55 l54 55 -44 0 c-43 0 -47 -3 -77 -50z"/>
<path d="M4040 1466 l0 -296 40 0 40 0 0 124 0 124 123 3 c145 5 179 19 215
89 42 81 21 170 -52 224 -25 19 -44 21 -197 24 l-169 3 0 -295z m272 228 c56
-10 88 -46 88 -101 0 -36 -6 -50 -29 -74 -29 -29 -31 -29 -140 -29 l-111 0 0
105 0 105 78 0 c42 0 94 -3 114 -6z"/>
<path d="M5030 1465 l0 -295 35 0 c31 0 35 3 35 27 l0 27 31 -30 c27 -26 37
-29 97 -29 83 0 119 22 156 97 36 72 37 194 3 258 -45 86 -172 117 -247 62
-16 -12 -32 -22 -35 -22 -3 0 -5 45 -5 100 l0 100 -35 0 -35 0 0 -295z m245
73 c87 -39 86 -267 -1 -306 -64 -30 -133 -4 -158 58 -20 52 -21 152 -1 191 30
58 102 83 160 57z"/>
<path d="M5510 1465 l0 -295 30 0 30 0 0 295 0 295 -30 0 -30 0 0 -295z"/>
<path d="M5690 1720 c0 -39 1 -40 35 -40 34 0 35 1 35 40 0 39 -1 40 -35 40
-34 0 -35 -1 -35 -40z"/>
<path d="M6530 1465 l0 -295 40 0 40 0 0 140 0 140 155 0 155 0 0 -140 0 -140
40 0 40 0 0 295 0 295 -40 0 -40 0 0 -125 0 -125 -155 0 -155 0 0 125 0 125
-40 0 -40 0 0 -295z"/>
<path d="M8050 1465 l0 -295 35 0 35 0 0 295 0 295 -35 0 -35 0 0 -295z"/>
<path d="M8460 1465 l0 -295 35 0 35 0 0 138 c0 158 11 194 71 227 30 15 44
17 75 10 58 -15 64 -35 64 -217 l0 -158 35 0 35 0 0 165 c0 176 -7 212 -50
250 -17 16 -36 20 -89 20 -59 0 -72 -4 -104 -28 l-37 -28 0 105 0 106 -35 0
-35 0 0 -295z"/>
<path d="M12081 1738 c-4 -13 -54 -143 -110 -290 -55 -147 -101 -270 -101
-273 0 -3 17 -5 38 -5 35 0 39 3 51 38 8 20 22 61 33 90 l19 52 119 0 118 0
29 -87 30 -88 41 -3 c23 -2 42 1 42 5 0 5 -47 137 -104 293 l-104 285 -46 3
c-40 3 -47 0 -55 -20z m98 -194 c22 -64 41 -120 41 -125 0 -11 -180 -12 -180
-1 0 15 84 242 91 242 3 0 25 -52 48 -116z"/>
<path d="M15240 1654 l0 -106 -30 25 c-58 49 -161 44 -212 -10 -49 -53 -63
-92 -63 -183 0 -102 19 -148 79 -192 37 -27 47 -29 103 -26 51 3 68 9 91 31
35 33 42 34 42 2 0 -21 5 -25 30 -25 l30 0 0 295 0 295 -35 0 -35 0 0 -106z
m-39 -140 c59 -57 59 -206 -1 -266 -23 -23 -37 -28 -75 -28 -38 0 -52 5 -75
28 -79 80 -59 252 35 293 32 14 86 2 116 -27z"/>
<path d="M16120 1465 l0 -295 35 0 35 0 0 295 0 295 -35 0 -35 0 0 -295z"/>
<path d="M8250 1660 l0 -60 -30 0 c-27 0 -30 -3 -30 -30 0 -27 3 -30 30 -30
l30 0 0 -168 c0 -196 3 -202 83 -202 43 0 47 2 47 24 0 18 -7 26 -27 31 -15 3
-31 12 -35 18 -4 7 -8 76 -8 155 l0 142 35 0 c32 0 35 2 35 30 0 28 -3 30 -35
30 l-35 0 0 60 0 60 -30 0 -30 0 0 -60z"/>
<path d="M18350 1660 l0 -60 -30 0 c-27 0 -30 -3 -30 -30 0 -27 3 -30 30 -30
l30 0 0 -157 c0 -198 4 -207 83 -211 l57 -3 0 30 c0 22 -4 29 -14 25 -8 -3
-24 -1 -35 6 -20 10 -21 19 -21 160 l0 150 35 0 c32 0 35 2 35 30 0 28 -3 30
-35 30 l-35 0 0 60 0 60 -35 0 -35 0 0 -60z"/>
<path d="M1364 1547 c-54 -109 -60 -112 -128 -72 l-43 25 28 -127 c16 -71 29
-145 29 -165 0 -61 -33 -51 -105 32 -33 38 -63 69 -66 70 -3 0 -13 -19 -22
-41 -18 -46 -5 -44 -129 -23 l-37 6 19 -63 c26 -86 26 -123 -1 -135 -20 -9
-10 -20 106 -124 125 -112 127 -114 122 -149 -3 -20 -9 -47 -13 -60 -6 -19 -4
-23 7 -19 42 15 240 50 254 44 15 -6 16 -20 10 -152 l-8 -146 24 4 24 3 -4
142 c-3 128 -2 143 14 149 9 4 71 -5 138 -19 67 -14 123 -24 126 -22 2 2 -2
18 -8 36 -23 68 -18 77 116 194 113 99 123 110 104 118 -32 15 -33 36 -8 123
l24 81 -56 -14 c-83 -19 -89 -17 -108 25 -10 20 -19 39 -20 41 -2 3 -33 -28
-69 -67 -64 -70 -96 -87 -108 -57 -3 8 8 78 24 155 17 77 30 144 30 150 0 6
-18 -1 -40 -15 -66 -42 -74 -37 -129 72 l-49 98 -48 -98z"/>
<path d="M5947 1589 c-109 -57 -140 -260 -55 -363 94 -114 279 -75 313 67 7
25 5 27 -26 27 -29 0 -36 -6 -52 -39 -39 -85 -157 -82 -193 5 -18 43 -18 145
0 188 32 78 122 102 177 47 16 -16 29 -37 29 -45 0 -12 10 -16 36 -16 35 0 35
1 29 33 -15 75 -75 117 -165 117 -35 -1 -69 -8 -93 -21z"/>
<path d="M7210 1588 c-26 -14 -57 -41 -75 -66 -26 -38 -30 -54 -33 -127 -5
-100 16 -157 72 -200 66 -50 180 -47 242 7 30 27 64 75 64 93 0 3 -16 5 -35 5
-28 0 -37 -5 -49 -29 -25 -47 -113 -69 -167 -40 -23 12 -58 82 -59 117 0 22 1
22 160 22 l161 0 -6 35 c-3 19 -7 51 -10 70 -11 70 -97 134 -180 135 -23 0
-61 -10 -85 -22z m134 -48 c30 -11 66 -65 66 -97 0 -23 -2 -23 -120 -23 -76 0
-120 4 -120 10 0 29 33 82 62 100 36 22 73 25 112 10z"/>
<path d="M7671 1597 c-45 -17 -81 -61 -81 -98 0 -26 3 -29 30 -29 20 0 30 5
30 15 0 9 11 27 25 40 19 20 34 25 77 25 69 0 98 -19 98 -64 0 -19 -6 -38 -13
-44 -6 -6 -50 -16 -97 -22 -101 -14 -139 -33 -164 -83 -23 -48 -15 -96 22
-138 45 -51 145 -52 216 -4 44 30 42 30 49 5 12 -47 107 -52 107 -6 0 18 -6
25 -22 28 -22 3 -23 7 -28 158 -3 85 -9 163 -14 173 -21 45 -162 71 -235 44z
m164 -323 c-21 -32 -68 -55 -116 -56 -61 -1 -95 41 -77 94 11 31 40 44 127 57
35 6 66 13 70 17 14 14 11 -89 -4 -112z"/>
<path d="M12543 1591 c-52 -24 -89 -78 -103 -151 -30 -157 41 -270 170 -270
44 0 65 6 94 25 l36 24 0 -38 c0 -92 -39 -131 -129 -131 -42 0 -53 4 -74 30
-19 22 -34 30 -57 30 -30 0 -32 -2 -25 -27 9 -38 23 -53 70 -74 77 -35 181
-20 232 33 47 49 53 89 53 336 l0 222 -30 0 c-25 0 -30 -4 -30 -25 0 -30 -11
-32 -35 -5 -18 20 -73 40 -110 40 -11 0 -39 -9 -62 -19z m131 -56 c55 -26 83
-101 70 -185 -10 -60 -42 -102 -91 -120 -38 -13 -46 -12 -77 3 -48 22 -69 68
-70 144 0 78 25 136 68 157 39 20 60 20 100 1z"/>
<path d="M13035 1600 c-36 -11 -90 -61 -112 -104 -21 -40 -28 -141 -14 -194
14 -50 68 -114 111 -132 17 -7 56 -11 94 -8 71 4 124 35 151 88 22 42 19 50
-18 50 -26 0 -36 -6 -45 -24 -16 -36 -54 -57 -101 -58 -67 -1 -114 44 -122
117 l-4 30 159 3 159 3 -7 61 c-7 71 -33 118 -81 148 -39 24 -124 34 -170 20z
m124 -65 c25 -13 61 -75 61 -105 0 -6 -48 -10 -120 -10 -115 0 -120 1 -120 21
0 29 28 73 59 92 33 21 83 21 120 2z"/>
<path d="M13545 1603 c-11 -3 -34 -16 -52 -29 -40 -30 -43 -30 -43 1 0 21 -5
25 -30 25 l-30 0 0 -215 0 -215 35 0 35 0 0 146 c0 164 8 191 66 219 45 21 79
19 111 -9 l28 -24 3 -166 3 -166 36 0 35 0 -4 178 c-2 152 -6 182 -21 206 -30
45 -102 66 -172 49z"/>
<path d="M13935 1594 c-65 -33 -102 -92 -112 -174 -18 -150 62 -260 189 -260
84 0 147 50 173 138 6 20 3 22 -28 22 -29 0 -37 -5 -47 -30 -26 -64 -106 -91
-158 -54 -81 56 -72 263 13 302 61 28 122 8 145 -48 10 -25 18 -30 46 -30 32
0 34 2 28 28 -11 46 -38 84 -74 103 -43 24 -133 25 -175 3z"/>
<path d="M14376 1600 c-84 -26 -144 -139 -132 -252 7 -71 24 -105 71 -146 43
-39 69 -46 145 -40 67 5 101 24 138 78 31 47 29 60 -12 60 -26 0 -36 -5 -41
-20 -17 -54 -121 -81 -173 -44 -29 20 -52 66 -52 104 l0 30 155 0 155 0 0 38
c0 145 -117 233 -254 192z m119 -62 c15 -7 35 -29 46 -50 34 -67 34 -68 -102
-68 l-121 0 6 33 c9 46 66 97 110 97 19 0 47 -5 61 -12z"/>
<path d="M15514 1591 c-81 -37 -119 -119 -112 -238 4 -61 10 -81 34 -115 39
-55 85 -78 154 -78 92 1 162 45 184 118 7 20 4 22 -27 22 -26 0 -37 -6 -47
-26 -18 -33 -64 -56 -111 -56 -66 1 -106 44 -112 117 l-2 30 159 3 158 3 -7
57 c-7 61 -34 117 -68 142 -59 42 -138 50 -203 21z m135 -54 c29 -15 57 -53
65 -89 l6 -28 -125 0 c-69 0 -125 2 -125 5 0 2 7 23 17 46 27 67 101 98 162
66z"/>
<path d="M16393 1599 c-32 -9 -83 -60 -83 -84 0 -7 -3 -20 -6 -29 -5 -13 1
-16 30 -16 26 0 36 4 36 15 0 9 11 27 25 40 37 38 140 32 167 -9 12 -18 9 -63
-5 -74 -6 -6 -50 -16 -96 -22 -137 -19 -176 -49 -176 -136 0 -47 4 -57 33 -86
30 -31 37 -33 100 -33 58 0 75 4 110 27 50 33 48 33 55 8 12 -47 107 -52 107
-6 0 18 -6 25 -22 28 -22 3 -23 7 -28 160 -5 148 -6 158 -29 182 -40 42 -138
58 -218 35z m168 -312 c-18 -45 -96 -81 -150 -67 -36 8 -64 51 -55 83 8 35 31
47 129 66 l80 16 3 -36 c2 -19 -2 -47 -7 -62z"/>
<path d="M17055 1590 c-48 -24 -75 -65 -75 -114 0 -63 30 -83 203 -131 69 -19
90 -48 64 -89 -44 -66 -180 -53 -207 20 -7 18 -17 24 -40 24 -36 0 -39 -18
-12 -69 27 -50 73 -71 157 -71 116 0 180 48 180 137 0 64 -35 93 -151 122 -49
12 -97 30 -106 38 -43 39 -4 93 67 93 55 0 90 -15 104 -46 13 -29 71 -35 71
-9 0 90 -152 146 -255 95z"/>
<path d="M17505 1599 c-40 -11 -81 -56 -90 -96 -6 -32 -6 -33 29 -33 26 0 36
4 36 15 0 9 11 27 25 40 37 38 140 32 167 -9 12 -18 9 -63 -5 -74 -6 -6 -50
-16 -96 -22 -132 -18 -171 -46 -179 -130 -4 -48 -3 -52 37 -91 41 -41 41 -41
105 -37 48 3 74 10 105 31 49 32 47 32 54 7 12 -47 107 -52 107 -6 0 18 -6 25
-22 28 -22 3 -23 7 -28 160 -5 148 -6 158 -29 182 -40 42 -138 58 -216 35z
m160 -318 c-19 -38 -64 -62 -118 -63 -70 -1 -111 68 -67 112 21 21 28 23 130
43 l65 12 3 -37 c2 -20 -4 -51 -13 -67z"/>
<path d="M18015 1596 c-17 -7 -36 -20 -44 -29 -19 -24 -31 -21 -31 8 0 22 -4
25 -35 25 l-35 0 0 -215 0 -215 35 0 35 0 0 135 c0 155 10 193 62 225 42 27
105 21 130 -10 16 -19 18 -45 18 -186 l0 -164 35 0 35 0 0 171 c0 194 -8 226
-65 253 -40 19 -99 20 -140 2z"/>
<path d="M18674 1599 c-52 -15 -110 -87 -124 -154 -13 -64 -7 -143 15 -185 21
-41 80 -88 120 -96 55 -10 133 1 163 23 31 23 72 80 72 99 0 9 -12 14 -35 14
-23 0 -35 -5 -35 -14 0 -8 -14 -26 -31 -40 -36 -31 -110 -36 -147 -10 -29 20
-52 66 -52 104 l0 30 155 0 155 0 0 38 c0 146 -115 232 -256 191z m125 -64
c28 -14 61 -68 61 -99 0 -14 -17 -16 -121 -16 l-121 0 6 33 c9 47 66 97 111
97 20 0 49 -7 64 -15z"/>
<path d="M4580 1425 c0 -199 7 -227 65 -251 67 -27 156 -9 190 40 15 20 15 19
15 -12 0 -30 2 -32 35 -32 l35 0 0 215 0 215 -35 0 -35 0 0 -121 c0 -189 -24
-245 -108 -256 -34 -5 -45 -1 -66 20 -26 26 -26 27 -26 192 l0 165 -35 0 -35
0 0 -175z"/>
<path d="M5690 1385 l0 -215 35 0 35 0 0 215 0 215 -35 0 -35 0 0 -215z"/>
<path d="M8106 925 c-56 -20 -122 -89 -146 -153 -25 -66 -27 -195 -4 -271 18
-61 70 -123 128 -153 57 -30 175 -30 231 -1 72 38 135 123 135 183 0 16 -6 20
-34 20 -31 0 -36 -4 -46 -35 -36 -109 -147 -154 -250 -102 -65 32 -102 109
-102 209 -1 100 16 155 61 199 86 86 237 69 279 -31 16 -36 20 -40 55 -40 42
0 45 7 18 65 -23 51 -79 101 -128 114 -53 15 -150 13 -197 -4z"/>
<path d="M16572 914 c-87 -43 -132 -117 -147 -239 -8 -60 7 -161 32 -212 23
-50 86 -109 131 -125 48 -16 147 -16 195 1 55 19 106 67 133 126 33 71 32 85
-10 85 -31 0 -36 -5 -62 -57 -36 -72 -68 -95 -137 -101 -96 -8 -163 43 -193
147 -32 107 -3 236 65 294 89 74 225 53 267 -42 16 -37 21 -41 55 -41 36 0 37
1 30 28 -32 111 -108 162 -241 162 -51 0 -78 -6 -118 -26z"/>
<path d="M4094 634 l-111 -295 41 3 40 3 32 85 31 85 118 0 118 0 31 -87 31
-88 42 0 43 0 -30 83 c-17 45 -65 178 -108 294 l-77 213 -45 0 -45 0 -111
-296z m205 64 l40 -118 -94 0 -94 0 38 108 c53 145 53 144 62 135 4 -4 26 -61
48 -125z"/>
<path d="M7539 911 c-19 -15 -25 -32 -29 -83 -5 -60 -6 -63 -32 -66 -22 -3
-28 -9 -28 -28 0 -20 5 -24 30 -24 l30 0 0 -185 0 -185 35 0 35 0 0 185 0 185
35 0 c31 0 35 3 35 25 0 22 -4 25 -35 25 -34 0 -35 1 -35 39 0 57 8 71 41 71
26 0 29 4 29 30 0 29 -2 30 -44 30 -28 0 -52 -7 -67 -19z"/>
<path d="M10230 825 c0 -58 -3 -105 -7 -105 -4 0 -17 10 -30 22 -24 23 -110
36 -157 24 -64 -16 -126 -124 -126 -218 0 -179 159 -285 283 -188 32 25 37 25
37 0 0 -16 7 -20 30 -20 l30 0 0 295 0 295 -30 0 -30 0 0 -105z m-43 -147 c81
-76 39 -275 -62 -294 -89 -16 -158 86 -139 207 18 112 125 159 201 87z"/>
<path d="M12830 635 l0 -295 30 0 c23 0 30 4 30 20 0 26 6 25 43 -6 28 -24 37
-26 99 -22 58 3 72 8 99 33 48 46 72 108 73 190 0 90 -16 135 -63 178 -61 55
-169 59 -216 7 -10 -11 -22 -20 -27 -20 -4 0 -8 47 -8 105 l0 105 -30 0 -30 0
0 -295z m253 57 c34 -31 50 -75 50 -137 0 -71 -21 -127 -57 -150 -33 -22 -97
-21 -130 0 -52 34 -72 154 -39 236 28 71 124 99 176 51z"/>
<path d="M13300 635 l0 -295 35 0 35 0 0 295 0 295 -35 0 -35 0 0 -295z"/>
<path d="M13480 890 c0 -39 1 -40 35 -40 34 0 35 1 35 40 0 39 -1 40 -35 40
-34 0 -35 -1 -35 -40z"/>
<path d="M15570 825 c0 -58 -3 -105 -6 -105 -3 0 -20 12 -37 26 -28 24 -37 26
-99 22 -61 -3 -71 -7 -103 -38 -47 -45 -70 -109 -69 -190 0 -74 29 -147 71
-180 62 -49 160 -46 214 6 l29 28 0 -27 c0 -23 4 -27 30 -27 l30 0 0 295 0
295 -30 0 -30 0 0 -105z m-34 -153 c25 -33 37 -85 31 -143 -6 -71 -30 -114
-76 -135 -31 -15 -40 -15 -75 -3 -55 20 -79 56 -84 129 -2 32 -1 75 2 94 8 43
56 93 94 98 33 5 90 -16 108 -40z"/>
<path d="M18710 825 l0 -104 -36 24 c-50 34 -136 35 -185 2 -52 -35 -81 -97
-87 -184 -6 -91 14 -148 67 -196 63 -57 155 -58 215 -2 34 31 36 31 36 0 0
-21 5 -25 30 -25 l30 0 0 295 0 295 -35 0 -35 0 0 -105z m-43 -136 c29 -25 43
-68 43 -136 0 -84 -21 -131 -71 -157 -32 -18 -41 -18 -78 -7 -123 36 -121 287
2 319 34 9 80 1 104 -19z"/>
<path d="M5162 768 c-56 -12 -115 -71 -132 -132 -7 -25 -11 -78 -8 -120 3 -65
7 -79 34 -113 46 -56 89 -78 154 -77 89 1 163 50 185 122 6 20 3 22 -27 22
-26 0 -37 -6 -50 -30 -18 -32 -70 -60 -110 -60 -56 0 -118 69 -118 130 0 19 6
20 160 20 88 0 160 3 160 8 -2 58 -23 139 -44 166 -43 57 -124 82 -204 64z
m103 -62 c36 -16 65 -59 65 -101 l0 -25 -115 0 c-90 0 -117 3 -121 14 -9 24
33 92 68 109 41 20 59 21 103 3z"/>
<path d="M5671 770 c-18 -4 -46 -17 -62 -29 -36 -27 -39 -26 -39 4 0 22 -4 25
-35 25 l-35 0 0 -215 0 -215 35 0 35 0 0 136 c0 105 4 144 16 170 35 74 154
92 182 28 8 -15 12 -84 12 -179 l0 -155 35 0 35 0 0 173 c0 116 -4 180 -13
196 -26 51 -97 77 -166 61z"/>
<path d="M6055 761 c-80 -37 -115 -101 -115 -211 0 -144 65 -220 188 -220 45
0 67 5 92 23 43 28 68 64 76 105 6 30 5 32 -24 32 -25 0 -33 -6 -49 -37 -11
-24 -32 -45 -54 -56 -32 -15 -41 -16 -75 -5 -58 19 -87 80 -81 168 2 36 12 80
21 98 22 42 72 67 119 58 36 -7 77 -45 77 -72 0 -9 12 -14 36 -14 36 0 36 1
30 32 -10 48 -33 78 -79 99 -53 24 -111 24 -162 0z"/>
<path d="M7127 766 c-76 -28 -117 -92 -125 -196 -11 -154 60 -243 193 -243
115 0 180 63 200 194 26 176 -111 301 -268 245z m132 -61 c78 -40 86 -232 13
-298 -29 -26 -82 -32 -125 -13 -73 30 -100 161 -53 259 30 62 102 85 165 52z"/>
<path d="M8647 764 c-51 -16 -87 -58 -87 -101 0 -19 6 -23 29 -23 22 0 31 6
40 29 29 69 163 69 191 1 8 -20 9 -34 1 -48 -12 -22 -29 -28 -122 -37 -89 -9
-140 -39 -157 -89 -44 -136 118 -224 245 -133 26 19 39 23 42 15 9 -31 35 -48
73 -48 36 0 38 2 38 31 0 18 -4 28 -10 24 -6 -4 -17 -1 -25 5 -12 10 -15 43
-15 160 0 144 -1 149 -25 178 -18 22 -40 34 -76 41 -63 14 -83 13 -142 -5z
m173 -262 c0 -55 -21 -85 -76 -108 -46 -19 -77 -17 -108 7 -36 28 -36 82 0
105 20 14 110 36 172 43 8 1 12 -15 12 -47z"/>
<path d="M9181 770 c-18 -4 -46 -17 -62 -29 -36 -27 -39 -26 -39 4 0 21 -5 25
-30 25 l-30 0 0 -215 0 -215 30 0 30 0 1 103 c1 143 11 202 39 232 54 57 146
49 169 -15 6 -19 11 -95 11 -176 l0 -144 36 0 36 0 -4 173 c-3 137 -7 178 -20
203 -25 46 -100 70 -167 54z"/>
<path d="M9593 771 c-49 -13 -83 -39 -99 -76 -20 -49 -18 -55 19 -55 27 0 35
5 44 30 14 37 53 53 111 47 52 -6 82 -31 82 -67 0 -39 -19 -50 -102 -61 -101
-14 -133 -26 -163 -60 -31 -38 -34 -100 -5 -146 25 -42 50 -54 110 -55 60 0
86 8 128 39 l32 24 10 -25 c10 -27 42 -40 81 -34 18 2 25 10 27 32 2 17 0 26
-6 22 -6 -3 -17 -3 -26 0 -14 5 -16 28 -16 153 0 164 -7 187 -60 213 -43 21
-124 30 -167 19z m155 -271 c-6 -60 -25 -83 -84 -106 -78 -30 -147 13 -130 79
8 34 31 46 119 62 107 19 100 22 95 -35z"/>
<path d="M10525 773 c-69 -17 -115 -62 -115 -113 0 -28 56 -29 65 0 24 76 180
80 199 5 14 -54 -7 -67 -129 -81 -109 -12 -160 -54 -160 -133 0 -76 55 -123
142 -122 45 0 67 7 105 30 31 19 48 26 48 17 0 -23 36 -46 73 -46 35 0 37 2
37 31 0 18 -4 28 -10 24 -6 -4 -17 -1 -25 5 -12 10 -15 44 -15 164 l0 152 -27
27 c-39 36 -126 55 -188 40z m145 -268 c0 -58 -20 -89 -71 -109 -53 -21 -81
-20 -113 5 -36 28 -36 82 0 105 20 14 110 36 172 43 8 1 12 -14 12 -44z"/>
<path d="M12054 770 c-17 -5 -39 -19 -49 -30 -23 -25 -35 -25 -35 0 0 16 -7
20 -35 20 l-35 0 0 -295 0 -295 35 0 35 0 0 105 0 104 36 -24 c71 -48 170 -33
227 34 53 63 63 232 18 305 -40 64 -126 97 -197 76z m82 -65 c44 -18 73 -79
74 -153 0 -130 -95 -207 -184 -148 -79 51 -74 247 8 297 37 23 56 24 102 4z"/>
<path d="M13772 770 c-81 -19 -131 -105 -132 -222 0 -99 20 -150 73 -189 34
-25 49 -29 103 -29 52 0 67 4 92 25 17 14 33 25 36 25 3 0 6 -47 6 -105 l0
-105 30 0 30 0 0 300 0 300 -30 0 c-25 0 -30 -4 -30 -25 0 -14 -3 -25 -6 -25
-3 0 -19 11 -36 25 -16 14 -37 25 -46 25 -9 0 -26 2 -37 4 -11 3 -35 1 -53 -4z
m124 -77 c33 -21 49 -70 48 -148 0 -84 -21 -127 -73 -151 -31 -15 -40 -15 -75
-3 -60 22 -80 56 -84 147 -2 61 1 84 16 112 35 64 108 83 168 43z"/>
<path d="M14716 769 c-96 -23 -146 -99 -146 -222 0 -43 6 -92 14 -110 18 -44
77 -94 127 -107 50 -14 127 0 170 31 25 17 69 84 69 104 0 3 -15 5 -32 5 -26
0 -37 -7 -55 -34 -54 -84 -176 -68 -212 27 -26 68 -28 67 149 67 l160 0 -5 43
c-12 88 -16 101 -40 132 -41 55 -124 81 -199 64z m99 -63 c36 -16 65 -59 65
-101 l0 -25 -115 0 c-131 0 -140 5 -108 66 19 37 72 74 106 74 10 0 33 -6 52
-14z"/>
<path d="M17155 771 c-65 -16 -96 -46 -109 -103 -6 -26 -4 -28 28 -28 28 0 35
4 40 25 14 53 129 73 176 30 20 -18 26 -60 12 -82 -4 -7 -44 -17 -87 -23 -44
-6 -94 -15 -111 -21 -99 -31 -113 -178 -22 -225 58 -30 172 -13 209 32 17 20
26 17 33 -11 7 -26 37 -39 77 -33 18 2 25 10 27 32 2 17 0 26 -6 22 -6 -3 -17
-3 -26 0 -14 5 -16 28 -16 153 0 160 -6 184 -55 212 -35 20 -127 31 -170 20z
m155 -265 c0 -57 -35 -101 -92 -117 -48 -12 -81 -6 -108 21 -26 26 -25 53 3
85 17 20 39 29 97 39 41 8 81 14 88 15 8 1 12 -14 12 -43z"/>
<path d="M17671 770 c-18 -4 -46 -17 -62 -29 -36 -27 -39 -26 -39 4 0 22 -4
25 -35 25 l-35 0 0 -215 0 -215 34 0 34 0 4 148 c2 121 6 152 21 173 41 61
150 69 175 14 8 -16 12 -84 12 -180 l0 -155 35 0 35 0 0 173 c0 116 -4 180
-13 196 -26 51 -97 77 -166 61z"/>
<path d="M18075 769 c-60 -15 -105 -59 -105 -106 0 -19 5 -23 30 -23 23 0 33
6 40 24 13 34 49 56 93 56 75 0 124 -49 98 -98 -11 -21 -27 -26 -116 -37 -120
-15 -165 -52 -165 -137 0 -44 4 -54 34 -84 49 -49 132 -51 207 -5 l45 28 17
-29 c13 -23 23 -28 57 -28 36 0 40 2 40 25 0 15 -6 25 -15 25 -28 0 -35 39
-35 183 0 142 0 145 -26 170 -15 15 -46 30 -75 36 -57 13 -69 12 -124 0z m165
-249 c0 -56 -26 -99 -72 -120 -55 -25 -89 -25 -122 1 -27 21 -34 56 -16 88 12
23 29 31 110 46 100 19 100 19 100 -15z"/>
<path d="M19005 771 c-65 -16 -96 -46 -109 -103 -6 -26 -4 -28 28 -28 28 0 35
4 40 25 9 35 59 58 113 52 56 -6 83 -30 83 -74 0 -40 -14 -47 -114 -57 -89 -9
-131 -27 -156 -68 -38 -62 -18 -143 42 -174 57 -30 171 -14 207 29 19 23 28
21 35 -8 7 -26 37 -39 77 -33 18 2 25 10 27 32 2 17 0 26 -6 22 -6 -3 -17 -3
-26 0 -14 5 -16 28 -16 158 0 165 -5 183 -58 210 -34 18 -128 27 -167 17z
m155 -265 c0 -57 -35 -101 -92 -117 -48 -12 -81 -6 -108 21 -26 26 -25 53 3
85 17 20 39 29 97 39 41 8 81 14 88 15 8 1 12 -14 12 -43z"/>
<path d="M4644 751 c-107 -65 -130 -277 -40 -367 57 -57 140 -66 214 -23 18
10 35 19 38 19 10 0 3 -63 -12 -99 -31 -77 -141 -95 -195 -32 -19 23 -34 31
-57 31 -37 0 -37 0 -18 -45 22 -53 81 -78 172 -73 78 4 108 18 148 72 20 26
21 43 24 277 l3 249 -31 0 c-23 0 -30 -4 -30 -20 0 -26 -6 -25 -42 5 -38 32
-126 35 -174 6z m170 -66 c34 -32 46 -65 46 -128 -1 -126 -88 -200 -180 -152
-78 40 -79 248 -1 290 43 23 104 19 135 -10z"/>
<path d="M6340 763 c0 -5 36 -105 79 -223 76 -210 77 -216 63 -250 -22 -53
-42 -72 -74 -68 -25 4 -28 2 -28 -24 0 -16 7 -31 15 -34 25 -10 84 6 105 28
24 26 73 141 155 368 35 96 66 183 70 193 6 14 1 17 -32 17 -39 0 -39 0 -57
-57 -44 -141 -99 -284 -106 -276 -4 4 -32 81 -61 171 l-54 162 -37 0 c-21 0
-38 -3 -38 -7z"/>
<path d="M12370 600 c0 -193 8 -228 61 -255 50 -26 141 -17 177 18 35 34 44
34 36 2 -6 -23 -4 -25 30 -25 l36 0 0 215 0 215 -35 0 -35 0 0 -137 c-1 -194
-24 -243 -119 -243 -31 0 -44 6 -60 26 -19 25 -21 40 -21 190 l0 164 -35 0
-35 0 0 -170z"/>
<path d="M14132 580 l3 -190 27 -26 c19 -20 40 -28 77 -32 63 -6 92 2 130 34
l31 26 0 -26 c0 -23 4 -26 35 -26 l35 0 0 215 0 215 -34 0 -34 0 -4 -147 c-4
-161 -15 -199 -65 -222 -38 -18 -91 -13 -113 9 -18 18 -20 33 -20 190 l0 170
-36 0 -35 0 3 -190z"/>
<path d="M15750 585 l0 -185 28 -31 c23 -26 38 -33 80 -37 64 -6 93 1 131 34
l31 26 0 -26 c0 -22 4 -26 30 -26 l30 0 0 215 0 215 -30 0 -30 0 0 -115 c0
-62 -5 -137 -11 -164 -13 -64 -53 -101 -108 -101 -77 0 -90 36 -91 243 l0 137
-30 0 -30 0 0 -185z"/>
<path d="M13480 550 l0 -210 35 0 35 0 0 210 0 210 -35 0 -35 0 0 -210z"/>
</g>
</svg>
